<svg width="64" height="64" viewBox="0 0 64 64" fill="none" xmlns="http://www.w3.org/2000/svg">
<path d="M32.1787 15.013C40.7756 15.013 47.8015 22.0382 47.8018 30.6351C47.8018 35.0136 45.8923 39.2311 42.6289 42.2132L42.6201 42.221L42.4385 42.4026C41.044 43.7971 40.4602 45.9351 40.21 47.6497C40.0831 48.5194 40.0384 49.3074 40.0254 49.8812C40.0136 50.402 40.0283 50.7923 40.0303 50.8177C40.0303 50.9912 39.9561 51.1487 39.8867 51.2181C39.7963 51.3084 39.6881 51.3615 39.5449 51.3616H24.7559C24.655 51.3616 24.4922 51.2972 24.4131 51.2181C24.3082 51.1131 24.2756 51.0282 24.2715 50.8568C24.2746 50.8352 24.2774 50.8138 24.2793 50.7943C24.2847 50.7384 24.2903 50.666 24.2939 50.5814C24.3013 50.4103 24.3049 50.1715 24.2998 49.8831C24.2895 49.3065 24.243 48.5176 24.1123 47.6478C23.8545 45.9317 23.2544 43.7957 21.8613 42.4026L21.8506 42.3919L21.8389 42.3812L21.5322 42.1038C18.4039 39.1904 16.5566 34.9911 16.5566 30.6351C16.5569 22.0384 23.582 15.0132 32.1787 15.013ZM32.1211 15.9271C24.0157 15.9271 17.4707 22.4721 17.4707 30.5775C17.4707 34.8308 19.3232 38.8444 22.4912 41.6058C23.6202 42.7654 24.2983 44.3358 24.6992 45.8831C25.0998 47.429 25.2138 48.9111 25.2422 49.847L25.2568 50.3314H39.0439L39.0586 49.847C39.0869 48.9115 39.2006 47.4718 39.5801 45.9749C39.9608 44.4732 40.5987 42.9532 41.6504 41.8206L41.7842 41.6771V41.6302C41.7895 41.6248 41.7944 41.619 41.7998 41.6136C44.9769 38.8489 46.7715 34.83 46.7715 30.5775C46.7714 22.4721 40.2265 15.9271 32.1211 15.9271Z" fill="#FFD166" stroke="#FFD166"/>
<path d="M32.123 19.1306C38.8084 19.1308 44.2049 24.5337 44.1494 31.1531V31.158C44.1491 31.4034 43.9095 31.643 43.6641 31.6433C43.4184 31.6433 43.1781 31.4036 43.1777 31.158C43.1777 25.0843 38.2582 20.1025 32.123 20.1023C31.8774 20.1023 31.637 19.8626 31.6367 19.6169C31.6367 19.3711 31.8772 19.1306 32.123 19.1306Z" fill="#FFD166" stroke="#FFD166"/>
<path d="M25.6836 53.4637H38.5586C39.6163 53.4637 40.494 54.3416 40.4941 55.3992C40.4941 56.428 39.6445 57.2814 38.4912 57.3348H25.6836C24.626 57.3346 23.748 56.4569 23.748 55.3992C23.7482 54.4079 24.5196 53.574 25.4873 53.4734L25.6836 53.4637ZM25.6836 54.3777C25.4384 54.3778 25.1833 54.4532 24.9893 54.6473C24.7952 54.8414 24.7197 55.0965 24.7197 55.3416C24.7198 55.9476 25.2174 56.3054 25.6836 56.3055H38.5586C38.8052 56.3055 39.0448 56.2097 39.2188 56.0184C39.3899 55.83 39.4648 55.5863 39.4648 55.3416C39.4648 54.7356 38.9672 54.3779 38.501 54.3777H25.6836Z" fill="#FFD166" stroke="#FFD166"/>
<path d="M27.5977 59.3213H36.6455C37.7108 59.3215 38.5809 60.1491 38.5811 61.2568C38.5811 62.3144 37.703 63.1921 36.6455 63.1924H27.5977C26.54 63.1923 25.6621 62.3145 25.6621 61.2568C25.6622 60.1993 26.5401 59.3214 27.5977 59.3213ZM27.5977 60.2354C27.3525 60.2354 27.0974 60.3108 26.9033 60.5049C26.7093 60.699 26.6338 60.9541 26.6338 61.1992C26.6339 61.8052 27.1315 62.163 27.5977 62.1631H36.6455C37.1116 62.1629 37.6093 61.8051 37.6094 61.1992C37.6094 60.5932 37.1117 60.2356 36.6455 60.2354H27.5977Z" fill="#FFD166" stroke="#FFD166"/>
<path d="M32.123 1.5C32.3687 1.50027 32.6084 1.74066 32.6084 1.98633V8.71289C32.6084 8.978 32.4076 9.199 32.123 9.19922C31.8772 9.19922 31.6367 8.9587 31.6367 8.71289V1.98633L31.6475 1.89453C31.6967 1.68387 31.9079 1.5 32.123 1.5Z" fill="#FFD166" stroke="#FFD166"/>
<path d="M47.6074 6.51025C47.7659 6.28875 48.0363 6.23959 48.2344 6.38818L48.251 6.40088L48.2686 6.41162C48.4931 6.55197 48.5205 6.84046 48.3867 6.99658L48.3662 7.01904L48.3496 7.04443L44.6387 12.6118L44.6318 12.6216L44.626 12.6323C44.5385 12.778 44.4072 12.853 44.2422 12.853C44.1854 12.853 44.1065 12.8354 43.998 12.7632L43.9912 12.7593L43.9854 12.7554L43.915 12.6997C43.7672 12.5538 43.7305 12.2983 43.8887 12.0874L43.8965 12.0767L47.6074 6.51025Z" fill="#FFD166" stroke="#FFD166"/>
<path d="M16.4375 6.06354C16.6911 5.90504 17.0114 5.98783 17.1406 6.1944L17.1436 6.19928L20.7363 11.8194V11.8204C20.8945 12.0738 20.8118 12.3933 20.6055 12.5225L20.5986 12.5264L20.5928 12.5313C20.4845 12.6035 20.4054 12.6211 20.3486 12.6212C20.2306 12.6212 20.152 12.6014 20.0938 12.5723C20.0517 12.5513 20.0027 12.5167 19.9492 12.4532L19.8945 12.3799L16.3057 6.76471C16.1486 6.51139 16.2314 6.19243 16.4375 6.06354Z" fill="#FFD166" stroke="#FFD166"/>
<path d="M6.58691 16.708C6.68084 16.5208 7.00255 16.4026 7.25 16.5264V16.5254L13.0918 19.708L13.1074 19.7158C13.2948 19.8095 13.4138 20.1313 13.29 20.3789C13.2125 20.534 13.0534 20.624 12.8672 20.624C12.8411 20.624 12.8176 20.6211 12.7783 20.6094C12.7556 20.6025 12.7297 20.5934 12.6924 20.5801C12.6687 20.5716 12.6395 20.561 12.6074 20.5498L6.78516 17.3799L6.76758 17.3701L6.74902 17.3613L6.66797 17.3145C6.4967 17.1859 6.44572 16.9387 6.56348 16.75L6.57617 16.7295L6.58691 16.708Z" fill="#FFD166" stroke="#FFD166"/>
<path d="M57.0508 16.5264C57.2983 16.4026 57.62 16.5208 57.7139 16.708C57.8377 16.9556 57.7186 17.2773 57.5312 17.3711L57.5176 17.3789L51.6123 20.5625C51.5828 20.577 51.5427 20.5933 51.498 20.6055C51.4513 20.6182 51.4091 20.624 51.376 20.624C51.1897 20.624 51.0307 20.5339 50.9531 20.3789C50.8294 20.1315 50.9476 19.8098 51.1348 19.7158L51.1484 19.709L57.0498 16.5254L57.0508 16.5264Z" fill="#FFD166" stroke="#FFD166"/>
</svg>
