<svg width="64" height="65" viewBox="0 0 64 65" fill="none" xmlns="http://www.w3.org/2000/svg">
<g clip-path="url(#clip0_1544_1015)">
<path d="M32.1787 15.0129C41.0517 15.0129 48.3015 22.262 48.3018 31.135C48.3018 35.6586 46.3295 40.0086 42.9658 43.0823L42.792 43.2561C40.2402 45.8079 40.5303 51.2596 40.5303 51.3176C40.5303 51.6076 40.4142 51.8975 40.2402 52.0715C40.0663 52.2454 39.8346 52.3615 39.5449 52.3616H24.7559C24.5239 52.3616 24.2336 52.2455 24.0596 52.0715C23.8277 51.8396 23.7695 51.6075 23.7695 51.3176C23.8275 51.2596 24.0596 45.8079 21.5078 43.2561C18.0863 40.2404 16.0566 35.7744 16.0566 31.135C16.0569 22.2622 23.3059 15.0132 32.1787 15.0129ZM32.1211 16.927C24.2919 16.927 17.9707 23.2482 17.9707 31.0774C17.9707 35.1949 19.7682 39.0805 22.8418 41.7483C25.2774 44.2419 25.6841 48.4173 25.7422 50.3313H38.5586C38.6166 48.4174 39.0227 44.4163 41.2842 41.9807C41.2842 41.9227 41.4 41.8063 41.458 41.7483C44.5317 39.0805 46.2715 35.195 46.2715 31.0774C46.2714 23.2481 39.9504 16.927 32.1211 16.927Z" fill="#FFD166"/>
<path d="M32.1787 15.0129C41.0517 15.0129 48.3015 22.262 48.3018 31.135C48.3018 35.6586 46.3295 40.0086 42.9658 43.0823L42.792 43.2561C40.2402 45.8079 40.5303 51.2596 40.5303 51.3176C40.5303 51.6076 40.4142 51.8975 40.2402 52.0715C40.0663 52.2454 39.8346 52.3615 39.5449 52.3616H24.7559C24.5239 52.3616 24.2336 52.2455 24.0596 52.0715C23.8277 51.8396 23.7695 51.6075 23.7695 51.3176C23.8275 51.2596 24.0596 45.8079 21.5078 43.2561C18.0863 40.2404 16.0566 35.7744 16.0566 31.135C16.0569 22.2622 23.3059 15.0132 32.1787 15.0129ZM32.1211 16.927C24.2919 16.927 17.9707 23.2482 17.9707 31.0774C17.9707 35.1949 19.7682 39.0805 22.8418 41.7483C25.2774 44.2419 25.6841 48.4173 25.7422 50.3313H38.5586C38.6166 48.4174 39.0227 44.4163 41.2842 41.9807C41.2842 41.9227 41.4 41.8063 41.458 41.7483C44.5317 39.0805 46.2715 35.195 46.2715 31.0774C46.2714 23.2481 39.9504 16.927 32.1211 16.927Z" stroke="black"/>
<path d="M32.123 19.1306C39.0822 19.1308 44.7074 24.7567 44.6494 31.658C44.6491 32.1796 44.1857 32.643 43.6641 32.6433C43.1423 32.6433 42.678 32.1797 42.6777 31.658C42.6777 25.8586 37.9803 21.1025 32.123 21.1023C31.6012 21.1023 31.137 20.6387 31.1367 20.1169C31.1367 19.595 31.6011 19.1306 32.123 19.1306Z" fill="#FFD166"/>
<path d="M32.123 19.1306C39.0822 19.1308 44.7074 24.7567 44.6494 31.658C44.6491 32.1796 44.1857 32.643 43.6641 32.6433C43.1423 32.6433 42.678 32.1797 42.6777 31.658C42.6777 25.8586 37.9803 21.1025 32.123 21.1023C31.6012 21.1023 31.137 20.6387 31.1367 20.1169C31.1367 19.595 31.6011 19.1306 32.123 19.1306Z" stroke="black"/>
<path d="M38.5586 53.4636C39.8924 53.4636 40.994 54.5654 40.9941 55.8992C40.9941 57.2329 39.8927 58.2766 38.501 58.3347H25.6836C24.3498 58.3346 23.248 57.233 23.248 55.8992C23.2482 54.5655 24.3499 53.4638 25.6836 53.4636H38.5586ZM25.6836 55.3777C25.3938 55.3778 25.2197 55.5517 25.2197 55.8416C25.2198 56.1313 25.4517 56.3053 25.6836 56.3054H38.5586C38.7905 56.3054 38.9648 56.1314 38.9648 55.8416C38.9648 55.5517 38.7328 55.3778 38.501 55.3777H25.6836Z" fill="#FFD166"/>
<path d="M38.5586 53.4636C39.8924 53.4636 40.994 54.5654 40.9941 55.8992C40.9941 57.2329 39.8927 58.2766 38.501 58.3347H25.6836C24.3498 58.3346 23.248 57.233 23.248 55.8992C23.2482 54.5655 24.3499 53.4638 25.6836 53.4636H38.5586ZM25.6836 55.3777C25.3938 55.3778 25.2197 55.5517 25.2197 55.8416C25.2198 56.1313 25.4517 56.3053 25.6836 56.3054H38.5586C38.7905 56.3054 38.9648 56.1314 38.9648 55.8416C38.9648 55.5517 38.7328 55.3778 38.501 55.3777H25.6836Z" stroke="black"/>
<path d="M36.6455 59.3213C37.9791 59.3215 39.0809 60.3652 39.0811 61.7568C39.0811 63.0906 37.9792 64.1921 36.6455 64.1924H27.5977C26.2639 64.1923 25.1621 63.0906 25.1621 61.7568C25.1622 60.4231 26.264 59.3214 27.5977 59.3213H36.6455ZM27.5977 61.2354C27.3078 61.2354 27.1338 61.4093 27.1338 61.6992C27.1339 61.989 27.3658 62.163 27.5977 62.1631H36.6455C36.8773 62.1629 37.1093 61.9889 37.1094 61.6992C37.1094 61.4094 36.8773 61.2356 36.6455 61.2354H27.5977Z" fill="#FFD166"/>
<path d="M36.6455 59.3213C37.9791 59.3215 39.0809 60.3652 39.0811 61.7568C39.0811 63.0906 37.9792 64.1921 36.6455 64.1924H27.5977C26.2639 64.1923 25.1621 63.0906 25.1621 61.7568C25.1622 60.4231 26.264 59.3214 27.5977 59.3213H36.6455ZM27.5977 61.2354C27.3078 61.2354 27.1338 61.4093 27.1338 61.6992C27.1339 61.989 27.3658 62.163 27.5977 62.1631H36.6455C36.8773 62.1629 37.1093 61.9889 37.1094 61.6992C37.1094 61.4094 36.8773 61.2356 36.6455 61.2354H27.5977Z" stroke="black"/>
<path d="M32.123 1.5C32.6448 1.50025 33.1084 1.96452 33.1084 2.48633V9.21289C33.1084 9.73472 32.7028 10.199 32.123 10.1992C31.6011 10.1992 31.1367 9.73484 31.1367 9.21289V2.48633C31.1367 1.96438 31.6011 1.5 32.123 1.5Z" fill="#FFD166"/>
<path d="M32.123 1.5C32.6448 1.50025 33.1084 1.96452 33.1084 2.48633V9.21289C33.1084 9.73472 32.7028 10.199 32.123 10.1992C31.6011 10.1992 31.1367 9.73484 31.1367 9.21289V2.48633C31.1367 1.96438 31.6011 1.5 32.123 1.5Z" stroke="black"/>
<path d="M47.2002 6.72021C47.4902 6.31425 48.0702 6.13982 48.5342 6.48779C48.998 6.7778 49.1136 7.41585 48.7656 7.82178L45.0547 13.3892C44.8807 13.6791 44.5902 13.853 44.2422 13.853C44.0683 13.853 43.8946 13.7951 43.7207 13.6792C43.2568 13.3893 43.1406 12.7515 43.4883 12.2876L47.2002 6.72021Z" fill="#FFD166"/>
<path d="M47.2002 6.72021C47.4902 6.31425 48.0702 6.13982 48.5342 6.48779C48.998 6.7778 49.1136 7.41585 48.7656 7.82178L45.0547 13.3892C44.8807 13.6791 44.5902 13.853 44.2422 13.853C44.0683 13.853 43.8946 13.7951 43.7207 13.6792C43.2568 13.3893 43.1406 12.7515 43.4883 12.2876L47.2002 6.72021Z" stroke="black"/>
<path d="M16.1729 6.13965C16.6368 5.84974 17.2745 5.96576 17.5645 6.42969L21.1602 12.0547C21.4501 12.5186 21.3341 13.1573 20.8701 13.4473C20.6963 13.5631 20.5224 13.621 20.3486 13.6211C20.0008 13.6211 19.7105 13.505 19.4785 13.1572L15.8828 7.53125C15.5929 7.0673 15.7089 6.42961 16.1729 6.13965Z" fill="#FFD166"/>
<path d="M16.1729 6.13965C16.6368 5.84974 17.2745 5.96576 17.5645 6.42969L21.1602 12.0547C21.4501 12.5186 21.3341 13.1573 20.8701 13.4473C20.6963 13.5631 20.5224 13.621 20.3486 13.6211C20.0008 13.6211 19.7105 13.505 19.4785 13.1572L15.8828 7.53125C15.5929 7.0673 15.7089 6.42961 16.1729 6.13965Z" stroke="black"/>
<path d="M6.13965 16.9844C6.37177 16.5207 7.00979 16.3472 7.47363 16.5791L13.3311 19.7686C13.795 20.0005 13.9692 20.6386 13.7373 21.1025C13.5633 21.4505 13.2151 21.624 12.8672 21.624C12.6933 21.624 12.5771 21.5668 12.4033 21.5088L6.5459 18.3184C6.02395 18.0864 5.84967 17.4483 6.13965 16.9844Z" fill="#FFD166"/>
<path d="M6.13965 16.9844C6.37177 16.5207 7.00979 16.3472 7.47363 16.5791L13.3311 19.7686C13.795 20.0005 13.9692 20.6386 13.7373 21.1025C13.5633 21.4505 13.2151 21.624 12.8672 21.624C12.6933 21.624 12.5771 21.5668 12.4033 21.5088L6.5459 18.3184C6.02395 18.0864 5.84967 17.4483 6.13965 16.9844Z" stroke="black"/>
<path d="M56.8271 16.5791C57.291 16.3472 57.929 16.5206 58.1611 16.9844C58.3931 17.4483 58.2188 18.0863 57.7549 18.3184L51.8398 21.5088C51.724 21.5667 51.5498 21.6239 51.376 21.624C51.0281 21.624 50.6799 21.4504 50.5059 21.1025C50.2739 20.6387 50.4474 20.0007 50.9111 19.7686L56.8271 16.5791Z" fill="#FFD166"/>
<path d="M56.8271 16.5791C57.291 16.3472 57.929 16.5206 58.1611 16.9844C58.3931 17.4483 58.2188 18.0863 57.7549 18.3184L51.8398 21.5088C51.724 21.5667 51.5498 21.6239 51.376 21.624C51.0281 21.624 50.6799 21.4504 50.5059 21.1025C50.2739 20.6387 50.4474 20.0007 50.9111 19.7686L56.8271 16.5791Z" stroke="black"/>
</g>
<defs>
<clipPath id="clip0_1544_1015">
<rect width="64" height="64" fill="white" transform="translate(0 0.5)"/>
</clipPath>
</defs>
</svg>
