<svg width="64" height="65" viewBox="0 0 64 65" fill="none" xmlns="http://www.w3.org/2000/svg">
<mask id="path-1-inside-1_1544_1010" fill="white">
<path d="M31.9629 11.0271C38.4474 4.88639 48.7192 4.99224 55.0723 11.3455C58.2024 14.4756 59.9258 18.6377 59.9258 23.0642C59.9258 27.4906 58.2021 31.652 55.0723 34.782L31.9629 57.8914L8.85352 34.782C5.72367 31.652 4 27.4906 4 23.0642C4 18.6377 5.72353 14.4756 8.85352 11.3455C15.2071 4.99218 25.4786 4.88641 31.9629 11.0271ZM43.3535 9.76929C39.8023 9.76934 36.4632 11.1518 33.9521 13.6628L31.9629 15.6531L29.9736 13.6628C27.4625 11.1517 24.1235 9.76934 20.5723 9.76929C17.021 9.76929 13.682 11.1518 11.1709 13.6628C8.65981 16.174 7.27735 19.5129 7.27734 23.0642C7.27734 26.6155 8.65981 29.9545 11.1709 32.4656L31.9629 53.2576L52.7549 32.4656C55.266 29.9545 56.6484 26.6155 56.6484 23.0642C56.6484 19.5129 55.266 16.174 52.7549 13.6628C50.2438 11.1518 46.9048 9.76929 43.3535 9.76929ZM37.7871 19.114V24.4539H43.1279V36.1033H37.7871V41.4441H26.1387V36.1033H20.7979V24.4539H26.1387V19.114H37.7871ZM29.415 22.3904V27.7312H24.0752V32.8259H29.415V38.1667H34.5107V32.8259H39.8506V27.7312H34.5107V22.3904H29.415Z"/>
</mask>
<path d="M31.9629 11.0271C38.4474 4.88639 48.7192 4.99224 55.0723 11.3455C58.2024 14.4756 59.9258 18.6377 59.9258 23.0642C59.9258 27.4906 58.2021 31.652 55.0723 34.782L31.9629 57.8914L8.85352 34.782C5.72367 31.652 4 27.4906 4 23.0642C4 18.6377 5.72353 14.4756 8.85352 11.3455C15.2071 4.99218 25.4786 4.88641 31.9629 11.0271ZM43.3535 9.76929C39.8023 9.76934 36.4632 11.1518 33.9521 13.6628L31.9629 15.6531L29.9736 13.6628C27.4625 11.1517 24.1235 9.76934 20.5723 9.76929C17.021 9.76929 13.682 11.1518 11.1709 13.6628C8.65981 16.174 7.27735 19.5129 7.27734 23.0642C7.27734 26.6155 8.65981 29.9545 11.1709 32.4656L31.9629 53.2576L52.7549 32.4656C55.266 29.9545 56.6484 26.6155 56.6484 23.0642C56.6484 19.5129 55.266 16.174 52.7549 13.6628C50.2438 11.1518 46.9048 9.76929 43.3535 9.76929ZM37.7871 19.114V24.4539H43.1279V36.1033H37.7871V41.4441H26.1387V36.1033H20.7979V24.4539H26.1387V19.114H37.7871ZM29.415 22.3904V27.7312H24.0752V32.8259H29.415V38.1667H34.5107V32.8259H39.8506V27.7312H34.5107V22.3904H29.415Z" fill="#FFD166"/>
<path d="M31.9629 11.0271L31.6191 11.3901L31.9629 11.7157L32.3067 11.3901L31.9629 11.0271ZM55.0723 11.3455L54.7187 11.699L54.7187 11.699L55.0723 11.3455ZM59.9258 23.0642H60.4258H59.9258ZM55.0723 34.782L55.4258 35.1355L55.4258 35.1355L55.0723 34.782ZM31.9629 57.8914L31.6093 58.2449L31.9629 58.5985L32.3164 58.2449L31.9629 57.8914ZM8.85352 34.782L8.49996 35.1355L8.49996 35.1355L8.85352 34.782ZM4 23.0642H3.5H4ZM8.85352 11.3455L8.49997 10.9919L8.49996 10.9919L8.85352 11.3455ZM43.3535 9.76929V9.26929H43.3535L43.3535 9.76929ZM33.9521 13.6628L33.5986 13.3093L33.5985 13.3094L33.9521 13.6628ZM31.9629 15.6531L31.6093 16.0065L31.9629 16.3604L32.3165 16.0065L31.9629 15.6531ZM29.9736 13.6628L30.3273 13.3094L30.3272 13.3093L29.9736 13.6628ZM20.5723 9.76929L20.5723 9.26929H20.5723V9.76929ZM11.1709 13.6628L10.8173 13.3093L10.8173 13.3093L11.1709 13.6628ZM7.27734 23.0642H6.77734H7.27734ZM31.9629 53.2576L31.6093 53.6111L31.9629 53.9647L32.3164 53.6111L31.9629 53.2576ZM56.6484 23.0642H57.1484H56.6484ZM52.7549 13.6628L53.1084 13.3093L53.1084 13.3093L52.7549 13.6628ZM37.7871 19.114H38.2871V18.614H37.7871V19.114ZM37.7871 24.4539H37.2871V24.9539H37.7871V24.4539ZM43.1279 24.4539H43.6279V23.9539H43.1279V24.4539ZM43.1279 36.1033V36.6033H43.6279V36.1033H43.1279ZM37.7871 36.1033V35.6033H37.2871V36.1033H37.7871ZM37.7871 41.4441V41.9441H38.2871V41.4441H37.7871ZM26.1387 41.4441H25.6387V41.9441H26.1387V41.4441ZM26.1387 36.1033H26.6387V35.6033H26.1387V36.1033ZM20.7979 36.1033H20.2979V36.6033H20.7979V36.1033ZM20.7979 24.4539V23.9539H20.2979V24.4539H20.7979ZM26.1387 24.4539V24.9539H26.6387V24.4539H26.1387ZM26.1387 19.114V18.614H25.6387V19.114H26.1387ZM29.415 22.3904V21.8904H28.915V22.3904H29.415ZM29.415 27.7312V28.2312H29.915V27.7312H29.415ZM24.0752 27.7312V27.2312H23.5752V27.7312H24.0752ZM24.0752 32.8259H23.5752V33.3259H24.0752V32.8259ZM29.415 32.8259H29.915V32.3259H29.415V32.8259ZM29.415 38.1667H28.915V38.6667H29.415V38.1667ZM34.5107 38.1667V38.6667H35.0107V38.1667H34.5107ZM34.5107 32.8259V32.3259H34.0107V32.8259H34.5107ZM39.8506 32.8259V33.3259H40.3506V32.8259H39.8506ZM39.8506 27.7312H40.3506V27.2312H39.8506V27.7312ZM34.5107 27.7312H34.0107V28.2312H34.5107V27.7312ZM34.5107 22.3904H35.0107V21.8904H34.5107V22.3904ZM31.9629 11.0271L32.3067 11.3901C38.5952 5.43508 48.5577 5.53791 54.7187 11.699L55.0723 11.3455L55.4258 10.9919C48.8806 4.44657 38.2997 4.3377 31.6191 10.6641L31.9629 11.0271ZM55.0723 11.3455L54.7187 11.699C57.755 14.7353 59.4258 18.7702 59.4258 23.0642H59.9258H60.4258C60.4258 18.5051 58.6497 14.2158 55.4258 10.9919L55.0723 11.3455ZM59.9258 23.0642H59.4258C59.4258 27.358 57.7548 31.3923 54.7187 34.4284L55.0723 34.782L55.4258 35.1355C58.6494 31.9118 60.4258 27.6232 60.4258 23.0642H59.9258ZM55.0723 34.782L54.7187 34.4284L31.6093 57.5378L31.9629 57.8914L32.3164 58.2449L55.4258 35.1355L55.0723 34.782ZM31.9629 57.8914L32.3164 57.5378L9.20707 34.4284L8.85352 34.782L8.49996 35.1355L31.6093 58.2449L31.9629 57.8914ZM8.85352 34.782L9.20707 34.4284C6.17099 31.3923 4.5 27.358 4.5 23.0642H4H3.5C3.5 27.6232 5.27634 31.9118 8.49996 35.1355L8.85352 34.782ZM4 23.0642H4.5C4.5 18.7702 6.17088 14.7353 9.20708 11.699L8.85352 11.3455L8.49996 10.9919C5.27619 14.2158 3.5 18.5051 3.5 23.0642H4ZM8.85352 11.3455L9.20706 11.699C15.3685 5.53784 25.3308 5.43511 31.6191 11.3901L31.9629 11.0271L32.3067 10.6641C25.6263 4.3377 15.0456 4.44653 8.49997 10.9919L8.85352 11.3455ZM43.3535 9.76929L43.3535 9.26929C39.6698 9.26934 36.2034 10.7044 33.5986 13.3093L33.9521 13.6628L34.3057 14.0164C36.7229 11.5992 39.9349 10.2693 43.3535 10.2693L43.3535 9.76929ZM33.9521 13.6628L33.5985 13.3094L31.6093 15.2996L31.9629 15.6531L32.3165 16.0065L34.3058 14.0163L33.9521 13.6628ZM31.9629 15.6531L32.3165 15.2996L30.3273 13.3094L29.9736 13.6628L29.62 14.0163L31.6093 16.0065L31.9629 15.6531ZM29.9736 13.6628L30.3272 13.3093C27.7222 10.7043 24.256 9.26934 20.5723 9.26929L20.5723 9.76929L20.5723 10.2693C23.9909 10.2693 27.2027 11.5991 29.6201 14.0164L29.9736 13.6628ZM20.5723 9.76929V9.26929C16.8885 9.26929 13.4222 10.7044 10.8173 13.3093L11.1709 13.6628L11.5244 14.0164C13.9417 11.5992 17.1536 10.2693 20.5723 10.2693V9.76929ZM11.1709 13.6628L10.8173 13.3093C8.21245 15.9143 6.77735 19.3804 6.77734 23.0642H7.27734H7.77734C7.77735 19.6455 9.10717 16.4338 11.5245 14.0164L11.1709 13.6628ZM7.27734 23.0642H6.77734C6.77734 26.748 8.21245 30.2142 10.8173 32.8191L11.1709 32.4656L11.5245 32.112C9.10717 29.6947 7.77734 26.4829 7.77734 23.0642H7.27734ZM11.1709 32.4656L10.8173 32.8191L31.6093 53.6111L31.9629 53.2576L32.3164 52.904L11.5245 32.112L11.1709 32.4656ZM31.9629 53.2576L32.3164 53.6111L53.1084 32.8191L52.7549 32.4656L52.4013 32.112L31.6093 52.904L31.9629 53.2576ZM52.7549 32.4656L53.1084 32.8191C55.7133 30.2142 57.1484 26.748 57.1484 23.0642H56.6484H56.1484C56.1484 26.4829 54.8186 29.6947 52.4013 32.112L52.7549 32.4656ZM56.6484 23.0642H57.1484C57.1484 19.3804 55.7133 15.9143 53.1084 13.3093L52.7549 13.6628L52.4013 14.0164C54.8186 16.4338 56.1484 19.6455 56.1484 23.0642H56.6484ZM52.7549 13.6628L53.1084 13.3093C50.5035 10.7044 47.0373 9.26929 43.3535 9.26929V9.76929V10.2693C46.7722 10.2693 49.9841 11.5992 52.4013 14.0164L52.7549 13.6628ZM37.7871 19.114H37.2871V24.4539H37.7871H38.2871V19.114H37.7871ZM37.7871 24.4539V24.9539H43.1279V24.4539V23.9539H37.7871V24.4539ZM43.1279 24.4539H42.6279V36.1033H43.1279H43.6279V24.4539H43.1279ZM43.1279 36.1033V35.6033H37.7871V36.1033V36.6033H43.1279V36.1033ZM37.7871 36.1033H37.2871V41.4441H37.7871H38.2871V36.1033H37.7871ZM37.7871 41.4441V40.9441H26.1387V41.4441V41.9441H37.7871V41.4441ZM26.1387 41.4441H26.6387V36.1033H26.1387H25.6387V41.4441H26.1387ZM26.1387 36.1033V35.6033H20.7979V36.1033V36.6033H26.1387V36.1033ZM20.7979 36.1033H21.2979V24.4539H20.7979H20.2979V36.1033H20.7979ZM20.7979 24.4539V24.9539H26.1387V24.4539V23.9539H20.7979V24.4539ZM26.1387 24.4539H26.6387V19.114H26.1387H25.6387V24.4539H26.1387ZM26.1387 19.114V19.614H37.7871V19.114V18.614H26.1387V19.114ZM29.415 22.3904H28.915V27.7312H29.415H29.915V22.3904H29.415ZM29.415 27.7312V27.2312H24.0752V27.7312V28.2312H29.415V27.7312ZM24.0752 27.7312H23.5752V32.8259H24.0752H24.5752V27.7312H24.0752ZM24.0752 32.8259V33.3259H29.415V32.8259V32.3259H24.0752V32.8259ZM29.415 32.8259H28.915V38.1667H29.415H29.915V32.8259H29.415ZM29.415 38.1667V38.6667H34.5107V38.1667V37.6667H29.415V38.1667ZM34.5107 38.1667H35.0107V32.8259H34.5107H34.0107V38.1667H34.5107ZM34.5107 32.8259V33.3259H39.8506V32.8259V32.3259H34.5107V32.8259ZM39.8506 32.8259H40.3506V27.7312H39.8506H39.3506V32.8259H39.8506ZM39.8506 27.7312V27.2312H34.5107V27.7312V28.2312H39.8506V27.7312ZM34.5107 27.7312H35.0107V22.3904H34.5107H34.0107V27.7312H34.5107ZM34.5107 22.3904V21.8904H29.415V22.3904V22.8904H34.5107V22.3904Z" fill="black" mask="url(#path-1-inside-1_1544_1010)"/>
</svg>
