<svg width="65" height="64" viewBox="0 0 65 64" fill="none" xmlns="http://www.w3.org/2000/svg">
<path d="M25.7098 28.534C25.4473 28.5077 25.1323 28.5077 24.8435 28.534C18.596 28.324 13.6348 23.2052 13.6348 16.9052C13.6348 10.474 18.8323 5.25024 25.2898 5.25024C31.721 5.25024 36.9448 10.474 36.9448 16.9052C36.9185 23.2052 31.9573 28.324 25.7098 28.534Z" stroke="#DA3466" stroke-width="2.5" stroke-linecap="round" stroke-linejoin="round"/>
<path d="M44.7436 10.5006C49.8361 10.5006 53.9311 14.6219 53.9311 19.6881C53.9311 24.6494 49.9936 28.6919 45.0848 28.8756C44.8748 28.8494 44.6386 28.8494 44.4023 28.8756" stroke="#DA3466" stroke-width="2.5" stroke-linecap="round" stroke-linejoin="round"/>
<path d="M12.5866 38.2206C6.23414 42.4731 6.23414 49.4031 12.5866 53.6294C19.8054 58.4594 31.6441 58.4594 38.8629 53.6294C45.2154 49.3769 45.2154 42.4469 38.8629 38.2206C31.6704 33.4169 19.8316 33.4169 12.5866 38.2206Z" stroke="#DA3466" stroke-width="2.5" stroke-linecap="round" stroke-linejoin="round"/>
<path d="M49.8086 52.5006C51.6986 52.1069 53.4836 51.3456 54.9536 50.2169C59.0486 47.1456 59.0486 42.0794 54.9536 39.0081C53.5098 37.9056 51.7511 37.1706 49.8873 36.7506" stroke="#DA3466" stroke-width="2.5" stroke-linecap="round" stroke-linejoin="round"/>
</svg>
