<svg width="65" height="64" viewBox="0 0 65 64" fill="none" xmlns="http://www.w3.org/2000/svg">
<path d="M63.7194 31.0026H58.305C60.5559 25.7662 60.3126 21.5273 59.4608 18.6597C58.0008 13.5481 53.073 8 45.7726 8C43.8259 8 41.8791 8.37403 39.8715 9.12208C36.4038 10.4312 34.092 11.8649 33.0578 12.613C32.0236 11.8649 29.7726 10.4312 26.2441 9.12208C24.2365 8.37403 22.2289 8 20.343 8C13.0426 8 8.11483 13.5481 6.65476 18.6597C5.80305 21.7143 5.49886 26.3273 8.35818 32.1247H1.78784C1.24031 32.1247 0.814453 32.561 0.814453 33.1221C0.814453 33.6831 1.24031 34.1195 1.78784 34.1195H9.51407C9.81826 34.6805 10.1833 35.2416 10.6091 35.8026C16.9361 45.1532 30.6852 55.3143 33.1795 55.9377V56C33.1795 56 33.2403 56 33.3011 55.9377C33.362 55.9377 33.4228 55.9377 33.4837 55.9377V55.8753C35.6129 54.8156 48.8145 46.0883 55.7498 35.7403C56.419 34.8052 56.9665 33.8701 57.4532 32.9351H63.8411C64.3886 32.9351 64.8145 32.4987 64.8145 31.9377C64.8145 31.3766 64.2669 31.0026 63.7194 31.0026ZM53.9856 34.6805C47.5369 44.3429 35.6738 52.1351 33.1186 53.8182C30.5027 52.1351 18.7004 44.2805 12.1909 34.6805C12.0692 34.4935 11.9475 34.3065 11.8259 34.1195H20.7688C21.1338 34.1195 21.4989 33.9325 21.6814 33.5584L25.7574 25.3299L32.1453 42.0987C32.2669 42.4727 32.6928 42.7221 33.0578 42.7221C33.0578 42.7221 33.0578 42.7221 33.1186 42.7221C33.5445 42.7221 33.9095 42.4104 34.0312 41.974L39.6281 22.3377L42.6091 32.2494C42.7308 32.6234 43.035 32.8727 43.4 32.9351C43.765 32.9974 44.13 32.8104 44.3734 32.4987L46.746 28.9455L48.7536 32.4364C48.9361 32.748 49.2403 32.9351 49.6053 32.9351H55.0806C54.7156 33.5584 54.3506 34.1195 53.9856 34.6805ZM56.1757 31.0026H50.2137L47.7194 26.639C47.5369 26.3273 47.2327 26.1403 46.8677 26.1403C46.5027 26.1403 46.1985 26.2649 46.016 26.5766L43.9475 29.6935L40.6015 18.5351C40.4799 18.0987 40.054 17.8493 39.6281 17.787C39.2023 17.787 38.7764 18.0987 38.6548 18.5351L32.997 38.5455L26.8525 22.4623C26.7308 22.0883 26.3658 21.839 26.0008 21.839C25.5749 21.839 25.2707 22.026 25.0882 22.4L20.2821 32.0623H10.6091C8.17567 27.5117 7.50647 23.1481 8.60153 19.2208C9.87909 14.7948 14.0768 10.0571 20.4038 10.0571C22.1072 10.0571 23.8715 10.4312 25.6357 11.0545C30.0768 12.7377 32.4494 14.6701 32.5103 14.6701C32.8753 14.9818 33.362 14.9818 33.727 14.6701C33.727 14.6701 36.0996 12.7377 40.6015 11.0545C42.3658 10.3688 44.13 10.0571 45.8335 10.0571C52.0996 10.0571 56.3582 14.7948 57.6357 19.2208C58.67 22.8364 58.1224 26.826 56.1757 31.0026Z" fill="#DA3466"/>
</svg>
