<svg width="65" height="62" viewBox="0 0 65 62" fill="none" xmlns="http://www.w3.org/2000/svg">
<g clip-path="url(#clip0_1835_270)">
<mask id="path-1-inside-1_1835_270" fill="white">
<path d="M45.6816 0.229004C55.8978 0.229004 64.1963 8.13768 64.1963 17.8755C64.1963 22.5833 62.2764 27.0199 58.7764 30.356L52.2275 36.5972C52.5887 36.7416 52.9489 36.8892 53.3047 37.0454L54.335 37.4858L54.1035 38.5366C53.1442 43.024 51.3321 47.0378 48.7207 50.4243C41.8266 59.4169 34.8611 61.229 25.8525 61.229H25.8174C21.4055 61.229 16.9581 60.2519 12.6162 58.3481V58.3501C12.3638 58.2493 12.1151 58.1408 11.8691 58.0288L11.5498 57.8931L11.5518 57.8804C5.569 55.0078 1.61719 48.8534 1.61719 42.228C1.6172 37.5202 3.53615 33.0831 7.03613 29.7466L32.6045 5.39404C36.1046 2.05755 40.7423 0.229035 45.6816 0.229004ZM40.0312 36.8423C31.1654 36.8423 24.6267 39.9249 19.4385 46.5464C17.6931 48.7639 16.2755 51.5438 15.3076 54.563L33.3311 45.9731L34.6025 48.397L16.6025 56.9741C19.6716 57.9964 22.7563 58.519 25.8174 58.519H25.8525C34.1677 58.519 40.2094 56.9271 46.4102 48.8325C48.5599 46.0214 50.1239 42.7359 51.0479 39.061C47.4587 37.6386 43.496 36.8423 40.0312 36.8423ZM9.06152 31.6772C6.09449 34.4884 4.45997 38.2312 4.45996 42.228C4.45996 47.6088 7.50384 52.6007 12.1934 55.144C13.2357 51.3116 14.9634 47.7445 17.1641 44.938C21.9418 38.8523 27.9667 35.3812 35.499 34.4146L20.8438 20.4468L9.06152 31.6772ZM45.6816 2.95557C41.5059 2.9556 37.5617 4.5136 34.6123 7.32471L22.8545 18.5308L39.2324 34.1421C39.5031 34.1364 39.7756 34.1333 40.0498 34.1333C43.0136 34.1333 46.1915 34.6333 49.292 35.5688L56.7686 28.4429C59.7357 25.6317 61.3525 21.8717 61.3525 17.8921C61.3525 9.66162 54.3169 2.95557 45.6816 2.95557Z"/>
</mask>
<path d="M45.6816 0.229004C55.8978 0.229004 64.1963 8.13768 64.1963 17.8755C64.1963 22.5833 62.2764 27.0199 58.7764 30.356L52.2275 36.5972C52.5887 36.7416 52.9489 36.8892 53.3047 37.0454L54.335 37.4858L54.1035 38.5366C53.1442 43.024 51.3321 47.0378 48.7207 50.4243C41.8266 59.4169 34.8611 61.229 25.8525 61.229H25.8174C21.4055 61.229 16.9581 60.2519 12.6162 58.3481V58.3501C12.3638 58.2493 12.1151 58.1408 11.8691 58.0288L11.5498 57.8931L11.5518 57.8804C5.569 55.0078 1.61719 48.8534 1.61719 42.228C1.6172 37.5202 3.53615 33.0831 7.03613 29.7466L32.6045 5.39404C36.1046 2.05755 40.7423 0.229035 45.6816 0.229004ZM40.0312 36.8423C31.1654 36.8423 24.6267 39.9249 19.4385 46.5464C17.6931 48.7639 16.2755 51.5438 15.3076 54.563L33.3311 45.9731L34.6025 48.397L16.6025 56.9741C19.6716 57.9964 22.7563 58.519 25.8174 58.519H25.8525C34.1677 58.519 40.2094 56.9271 46.4102 48.8325C48.5599 46.0214 50.1239 42.7359 51.0479 39.061C47.4587 37.6386 43.496 36.8423 40.0312 36.8423ZM9.06152 31.6772C6.09449 34.4884 4.45997 38.2312 4.45996 42.228C4.45996 47.6088 7.50384 52.6007 12.1934 55.144C13.2357 51.3116 14.9634 47.7445 17.1641 44.938C21.9418 38.8523 27.9667 35.3812 35.499 34.4146L20.8438 20.4468L9.06152 31.6772ZM45.6816 2.95557C41.5059 2.9556 37.5617 4.5136 34.6123 7.32471L22.8545 18.5308L39.2324 34.1421C39.5031 34.1364 39.7756 34.1333 40.0498 34.1333C43.0136 34.1333 46.1915 34.6333 49.292 35.5688L56.7686 28.4429C59.7357 25.6317 61.3525 21.8717 61.3525 17.8921C61.3525 9.66162 54.3169 2.95557 45.6816 2.95557Z" fill="#FFD166"/>
<path d="M45.6816 0.229004V-0.270996H45.6816L45.6816 0.229004ZM64.1963 17.8755L64.6963 17.8755V17.8755H64.1963ZM58.7764 30.356L59.1213 30.7179L59.1213 30.7179L58.7764 30.356ZM52.2275 36.5972L51.8826 36.2352L51.3189 36.7724L52.0419 37.0614L52.2275 36.5972ZM53.3047 37.0454L53.1037 37.5033L53.1082 37.5052L53.3047 37.0454ZM54.335 37.4858L54.8233 37.5934L54.9123 37.1889L54.5315 37.0261L54.335 37.4858ZM54.1035 38.5366L53.6152 38.4291L53.6146 38.4321L54.1035 38.5366ZM48.7207 50.4243L48.3247 50.119L48.3239 50.1201L48.7207 50.4243ZM25.8174 61.229V61.729V61.229ZM12.6162 58.3481L12.817 57.8902L12.1162 57.583V58.3481H12.6162ZM12.6162 58.3501L12.4308 58.8144L13.1162 59.0881V58.3501H12.6162ZM11.8691 58.0288L12.0764 57.5736L12.0647 57.5687L11.8691 58.0288ZM11.5498 57.8931L11.0556 57.817L10.9965 58.2012L11.3542 58.3532L11.5498 57.8931ZM11.5518 57.8804L12.0459 57.9564L12.1023 57.5901L11.7682 57.4296L11.5518 57.8804ZM1.61719 42.228H1.11719H1.61719ZM7.03613 29.7466L6.69129 29.3845L6.69113 29.3847L7.03613 29.7466ZM32.6045 5.39404L32.9493 5.7561L32.9495 5.75595L32.6045 5.39404ZM40.0312 36.8423V36.3423V36.8423ZM19.4385 46.5464L19.8314 46.8556L19.8321 46.8548L19.4385 46.5464ZM15.3076 54.563L14.8315 54.4104L14.4783 55.5121L15.5227 55.0143L15.3076 54.563ZM33.3311 45.9731L33.7738 45.7409L33.5503 45.3148L33.1159 45.5218L33.3311 45.9731ZM34.6025 48.397L34.8176 48.8483L35.2867 48.6248L35.0453 48.1647L34.6025 48.397ZM16.6025 56.9741L16.3875 56.5227L15.2675 57.0564L16.4445 57.4485L16.6025 56.9741ZM25.8174 58.519V59.019V58.519ZM46.4102 48.8325L46.8071 49.1366L46.8073 49.1363L46.4102 48.8325ZM51.0479 39.061L51.5328 39.183L51.6397 38.7577L51.2321 38.5962L51.0479 39.061ZM9.06152 31.6772L9.40541 32.0402L9.4065 32.0392L9.06152 31.6772ZM4.45996 42.228H3.95996H4.45996ZM12.1934 55.144L11.955 55.5836L12.5101 55.8846L12.6758 55.2753L12.1934 55.144ZM17.1641 44.938L16.7708 44.6292L16.7706 44.6295L17.1641 44.938ZM35.499 34.4146L35.5627 34.9105L36.6039 34.7769L35.844 34.0526L35.499 34.4146ZM20.8438 20.4468L21.1887 20.0848L20.8437 19.756L20.4988 20.0849L20.8438 20.4468ZM45.6816 2.95557V2.45557H45.6816L45.6816 2.95557ZM34.6123 7.32471L34.9573 7.68665L34.9573 7.68664L34.6123 7.32471ZM22.8545 18.5308L22.5095 18.1688L22.1298 18.5307L22.5095 18.8927L22.8545 18.5308ZM39.2324 34.1421L38.8874 34.504L39.0367 34.6463L39.2429 34.642L39.2324 34.1421ZM40.0498 34.1333L40.0498 33.6333H40.0498V34.1333ZM49.292 35.5688L49.1476 36.0475L49.4262 36.1316L49.637 35.9308L49.292 35.5688ZM56.7686 28.4429L56.4247 28.0799L56.4236 28.0809L56.7686 28.4429ZM61.3525 17.8921H61.8525V17.8921L61.3525 17.8921ZM45.6816 0.229004V0.729004C55.6446 0.729004 63.6963 8.43619 63.6963 17.8755H64.1963H64.6963C64.6963 7.83917 56.1511 -0.270996 45.6816 -0.270996V0.229004ZM64.1963 17.8755L63.6963 17.8755C63.6963 22.4432 61.8349 26.75 58.4314 29.994L58.7764 30.356L59.1213 30.7179C62.7179 27.2898 64.6962 22.7234 64.6963 17.8755L64.1963 17.8755ZM58.7764 30.356L58.4314 29.994L51.8826 36.2352L52.2275 36.5972L52.5725 36.9591L59.1213 30.7179L58.7764 30.356ZM52.2275 36.5972L52.0419 37.0614C52.4007 37.2049 52.7551 37.3502 53.1037 37.5032L53.3047 37.0454L53.5057 36.5876C53.1426 36.4282 52.7767 36.2783 52.4132 36.1329L52.2275 36.5972ZM53.3047 37.0454L53.1082 37.5052L54.1384 37.9456L54.335 37.4858L54.5315 37.0261L53.5012 36.5857L53.3047 37.0454ZM54.335 37.4858L53.8467 37.3783L53.6152 38.4291L54.1035 38.5366L54.5918 38.6442L54.8233 37.5934L54.335 37.4858ZM54.1035 38.5366L53.6146 38.4321C52.6695 42.8524 50.8869 46.7963 48.3248 50.119L48.7207 50.4243L49.1167 50.7296C51.7773 47.2793 53.6188 43.1955 54.5925 38.6412L54.1035 38.5366ZM48.7207 50.4243L48.3239 50.1201C44.9188 54.5617 41.5194 57.2013 37.8848 58.7384C34.2438 60.2782 30.3265 60.729 25.8525 60.729V61.229V61.729C30.3871 61.729 34.4569 61.2738 38.2743 59.6594C42.0981 58.0423 45.6286 55.2795 49.1175 50.7285L48.7207 50.4243ZM25.8525 61.229V60.729H25.8174V61.229V61.729H25.8525V61.229ZM25.8174 61.229V60.729C21.4803 60.729 17.1011 59.7686 12.817 57.8902L12.6162 58.3481L12.4154 58.8061C16.8151 60.7351 21.3306 61.729 25.8174 61.729V61.229ZM12.6162 58.3481H12.1162V58.3501H12.6162H13.1162V58.3481H12.6162ZM12.6162 58.3501L12.8016 57.8857C12.5588 57.7888 12.3177 57.6836 12.0763 57.5738L11.8691 58.0288L11.662 58.4839C11.9125 58.5979 12.1688 58.7099 12.4308 58.8144L12.6162 58.3501ZM11.8691 58.0288L12.0647 57.5687L11.7454 57.4329L11.5498 57.8931L11.3542 58.3532L11.6735 58.489L11.8691 58.0288ZM11.5498 57.8931L12.044 57.9691L12.0459 57.9564L11.5518 57.8804L11.0576 57.8043L11.0556 57.817L11.5498 57.8931ZM11.5518 57.8804L11.7682 57.4296C5.95486 54.6384 2.11719 48.6568 2.11719 42.228H1.61719H1.11719C1.11719 49.0499 5.18314 55.3772 11.3353 58.3311L11.5518 57.8804ZM1.61719 42.228H2.11719C2.1172 37.6603 3.97772 33.353 7.38113 30.1085L7.03613 29.7466L6.69113 29.3847C3.09458 32.8133 1.1172 37.3802 1.11719 42.228H1.61719ZM7.03613 29.7466L7.38097 30.1086L32.9493 5.7561L32.6045 5.39404L32.2597 5.03199L6.69129 29.3845L7.03613 29.7466ZM32.6045 5.39404L32.9495 5.75595C36.3542 2.51043 40.8673 0.729035 45.6816 0.729004L45.6816 0.229004L45.6816 -0.270996C40.6172 -0.270964 35.855 1.60466 32.2595 5.03213L32.6045 5.39404ZM40.0312 36.8423V36.3423C31.0213 36.3423 24.3336 39.4882 19.0449 46.238L19.4385 46.5464L19.8321 46.8548C24.9198 40.3615 31.3096 37.3423 40.0312 37.3423V36.8423ZM19.4385 46.5464L19.0456 46.2371C17.2578 48.5086 15.8146 51.3436 14.8315 54.4104L15.3076 54.563L15.7838 54.7156C16.7364 51.7439 18.1284 49.0193 19.8314 46.8556L19.4385 46.5464ZM15.3076 54.563L15.5227 55.0143L33.5462 46.4245L33.3311 45.9731L33.1159 45.5218L15.0925 54.1116L15.3076 54.563ZM33.3311 45.9731L32.8883 46.2054L34.1598 48.6292L34.6025 48.397L35.0453 48.1647L33.7738 45.7409L33.3311 45.9731ZM34.6025 48.397L34.3875 47.9456L16.3875 56.5227L16.6025 56.9741L16.8176 57.4255L34.8176 48.8483L34.6025 48.397ZM16.6025 56.9741L16.4445 57.4485C19.5607 58.4864 22.6988 59.019 25.8174 59.019V58.519V58.019C22.8139 58.019 19.7824 57.5063 16.7605 56.4997L16.6025 56.9741ZM25.8174 58.519V59.019H25.8525V58.519V58.019H25.8174V58.519ZM25.8525 58.519V59.019C30.038 59.019 33.7048 58.6194 37.1195 57.1716C40.541 55.7208 43.6666 53.2362 46.8071 49.1366L46.4102 48.8325L46.0132 48.5285C42.953 52.5234 39.9574 54.8821 36.7291 56.2509C33.4939 57.6227 29.9823 58.019 25.8525 58.019V58.519ZM46.4102 48.8325L46.8073 49.1363C49.0009 46.2678 50.5933 42.9196 51.5328 39.183L51.0479 39.061L50.5629 38.9391C49.6545 42.5522 48.1189 45.775 46.013 48.5288L46.4102 48.8325ZM51.0479 39.061L51.2321 38.5962C47.5907 37.1531 43.5657 36.3423 40.0312 36.3423V36.8423V37.3423C43.4263 37.3423 47.3267 38.1241 50.8636 39.5259L51.0479 39.061ZM9.06152 31.6772L8.71763 31.3143C5.6537 34.2172 3.95997 38.0901 3.95996 42.228H4.45996H4.95996C4.95997 38.3722 6.53528 34.7595 9.40541 32.0402L9.06152 31.6772ZM4.45996 42.228H3.95996C3.95996 47.796 7.10755 52.9546 11.955 55.5836L12.1934 55.144L12.4317 54.7045C7.90012 52.2468 4.95996 47.4217 4.95996 42.228H4.45996ZM12.1934 55.144L12.6758 55.2753C13.703 51.4987 15.4032 47.9939 17.5575 45.2465L17.1641 44.938L16.7706 44.6295C14.5236 47.4951 12.7685 51.1244 11.7109 55.0128L12.1934 55.144ZM17.1641 44.938L17.5573 45.2467C22.2563 39.2614 28.1641 35.86 35.5627 34.9105L35.499 34.4146L35.4354 33.9186C27.7693 34.9025 21.6273 38.4431 16.7708 44.6292L17.1641 44.938ZM35.499 34.4146L35.844 34.0526L21.1887 20.0848L20.8438 20.4468L20.4988 20.8087L35.1541 34.7765L35.499 34.4146ZM20.8438 20.4468L20.4988 20.0849L8.71655 31.3153L9.06152 31.6772L9.4065 32.0392L21.1887 20.8087L20.8438 20.4468ZM45.6816 2.95557L45.6816 2.45557C41.3808 2.4556 37.3121 4.06072 34.2673 6.96277L34.6123 7.32471L34.9573 7.68664C37.8112 4.96648 41.631 3.4556 45.6816 3.45557L45.6816 2.95557ZM34.6123 7.32471L34.2673 6.96276L22.5095 18.1688L22.8545 18.5308L23.1995 18.8927L34.9573 7.68665L34.6123 7.32471ZM22.8545 18.5308L22.5095 18.8927L38.8874 34.504L39.2324 34.1421L39.5774 33.7802L23.1995 18.1688L22.8545 18.5308ZM39.2324 34.1421L39.2429 34.642C39.5103 34.6364 39.7794 34.6333 40.0498 34.6333V34.1333V33.6333C39.7718 33.6333 39.4958 33.6365 39.222 33.6422L39.2324 34.1421ZM40.0498 34.1333L40.0498 34.6333C42.9594 34.6333 46.0885 35.1245 49.1476 36.0475L49.292 35.5688L49.4364 35.0902C46.2944 34.1421 43.0678 33.6333 40.0498 33.6333L40.0498 34.1333ZM49.292 35.5688L49.637 35.9308L57.1135 28.8048L56.7686 28.4429L56.4236 28.0809L48.947 35.2069L49.292 35.5688ZM56.7686 28.4429L57.1124 28.8058C60.1778 25.9016 61.8525 22.0109 61.8525 17.8921H61.3525H60.8525C60.8525 21.7324 59.2935 25.3618 56.4247 28.0799L56.7686 28.4429ZM61.3525 17.8921L61.8525 17.8921C61.8525 9.36314 54.5702 2.45557 45.6816 2.45557V2.95557V3.45557C54.0636 3.45557 60.8525 9.9601 60.8525 17.8921L61.3525 17.8921Z" fill="#121212" mask="url(#path-1-inside-1_1835_270)"/>
</g>
<defs>
<clipPath id="clip0_1835_270">
<rect width="64" height="61" fill="white" transform="translate(0.915039 0.229004)"/>
</clipPath>
</defs>
</svg>
