<svg width="64" height="64" viewBox="0 0 64 64" fill="none" xmlns="http://www.w3.org/2000/svg">
<mask id="path-1-inside-1_1747_15" fill="white">
<path d="M40 5.33301C41.4139 5.33442 42.7697 5.89679 43.7695 6.89648C44.7694 7.89637 45.3316 9.25294 45.333 10.667V13.333H58.667C60.0809 13.3345 61.4367 13.8968 62.4365 14.8965C63.4364 15.8964 63.9986 17.2529 64 18.667V53.333C63.9986 54.7469 63.4362 56.1027 62.4365 57.1025C61.4367 58.1024 60.0809 58.6655 58.667 58.667H5.33301C3.91907 58.6655 2.56329 58.1024 1.56348 57.1025C0.563785 56.1027 0.00141179 54.7469 0 53.333V18.667C0.00141194 17.2529 0.563588 15.8964 1.56348 14.8965C2.56327 13.8968 3.91914 13.3345 5.33301 13.333H18.667V10.667C18.6684 9.25294 19.2306 7.89637 20.2305 6.89648C21.2303 5.89679 22.5861 5.33442 24 5.33301H40ZM5.33301 16C4.62616 16.001 3.94806 16.2824 3.44824 16.7822C2.94855 17.2821 2.66791 17.9602 2.66699 18.667V53.333C2.66791 54.0398 2.94854 54.7179 3.44824 55.2178C3.94806 55.7176 4.62616 55.999 5.33301 56H58.667C59.3738 55.999 60.0519 55.7176 60.5518 55.2178C61.0515 54.7179 61.3321 54.0398 61.333 53.333V18.667C61.3321 17.9602 61.0514 17.2821 60.5518 16.7822C60.0519 16.2824 59.3738 16.001 58.667 16H5.33301ZM36 24C36.1751 23.9999 36.3489 24.0346 36.5107 24.1016C36.6725 24.1685 36.8196 24.2668 36.9434 24.3906C37.0671 24.5144 37.1655 24.6615 37.2324 24.8232C37.2993 24.9849 37.334 25.1581 37.334 25.333V32H44C44.1751 31.9999 44.3489 32.0346 44.5107 32.1016C44.6725 32.1685 44.8196 32.2668 44.9434 32.3906C45.0671 32.5144 45.1655 32.6615 45.2324 32.8232C45.2993 32.9849 45.334 33.1581 45.334 33.333V41.333C45.3341 41.5081 45.2994 41.6819 45.2324 41.8438C45.1655 42.0056 45.0672 42.1525 44.9434 42.2764C44.8195 42.4002 44.6725 42.4985 44.5107 42.5654C44.3489 42.6324 44.1751 42.6671 44 42.667H37.334V49.333C37.3341 49.5081 37.2994 49.6819 37.2324 49.8438C37.1655 50.0056 37.0672 50.1525 36.9434 50.2764C36.8195 50.4002 36.6725 50.4985 36.5107 50.5654C36.3489 50.6324 36.1751 50.6671 36 50.667H28C27.8251 50.667 27.6519 50.6323 27.4902 50.5654C27.3285 50.4985 27.1814 50.4001 27.0576 50.2764C26.9338 50.1526 26.8355 50.0055 26.7686 49.8438C26.7016 49.6819 26.6669 49.5081 26.667 49.333V42.667H20C19.8251 42.667 19.6519 42.6323 19.4902 42.5654C19.3285 42.4985 19.1814 42.4001 19.0576 42.2764C18.9338 42.1526 18.8355 42.0055 18.7686 41.8438C18.7016 41.6819 18.6669 41.5081 18.667 41.333V33.333C18.6669 33.158 18.7017 32.9849 18.7686 32.8232C18.8355 32.6614 18.9338 32.5145 19.0576 32.3906C19.1814 32.2668 19.3284 32.1685 19.4902 32.1016C19.6519 32.0347 19.825 31.9999 20 32H26.667V25.333C26.6669 25.158 26.7017 24.9849 26.7686 24.8232C26.8355 24.6614 26.9338 24.5145 27.0576 24.3906C27.1814 24.2668 27.3284 24.1685 27.4902 24.1016C27.6519 24.0347 27.825 23.9999 28 24H36ZM29.334 26.667V33.333C29.3341 33.5081 29.2994 33.6819 29.2324 33.8438C29.1655 34.0056 29.0672 34.1525 28.9434 34.2764C28.8195 34.4002 28.6725 34.4985 28.5107 34.5654C28.3489 34.6324 28.1751 34.6671 28 34.667H21.334V40H28C28.1751 39.9999 28.3489 40.0346 28.5107 40.1016C28.6725 40.1685 28.8196 40.2668 28.9434 40.3906C29.0671 40.5144 29.1655 40.6615 29.2324 40.8232C29.2993 40.9849 29.334 41.1581 29.334 41.333V48H34.667V41.333C34.6669 41.158 34.7017 40.9849 34.7686 40.8232C34.8355 40.6614 34.9338 40.5145 35.0576 40.3906C35.1814 40.2668 35.3284 40.1685 35.4902 40.1016C35.6519 40.0347 35.825 39.9999 36 40H42.667V34.667H36C35.8251 34.6671 35.6519 34.6323 35.4902 34.5654C35.3285 34.4985 35.1814 34.4001 35.0576 34.2764C34.9338 34.1526 34.8355 34.0055 34.7686 33.8438C34.7016 33.6819 34.6669 33.5081 34.667 33.333V26.667H29.334ZM24 8C23.293 8.00092 22.6151 8.28233 22.1152 8.78223C21.6154 9.28211 21.3339 9.96011 21.333 10.667V13.333H42.667V10.667C42.6661 9.96011 42.3846 9.28211 41.8848 8.78223C41.3849 8.28233 40.707 8.00092 40 8H24Z"/>
</mask>
<path d="M40 5.33301C41.4139 5.33442 42.7697 5.89679 43.7695 6.89648C44.7694 7.89637 45.3316 9.25294 45.333 10.667V13.333H58.667C60.0809 13.3345 61.4367 13.8968 62.4365 14.8965C63.4364 15.8964 63.9986 17.2529 64 18.667V53.333C63.9986 54.7469 63.4362 56.1027 62.4365 57.1025C61.4367 58.1024 60.0809 58.6655 58.667 58.667H5.33301C3.91907 58.6655 2.56329 58.1024 1.56348 57.1025C0.563785 56.1027 0.00141179 54.7469 0 53.333V18.667C0.00141194 17.2529 0.563588 15.8964 1.56348 14.8965C2.56327 13.8968 3.91914 13.3345 5.33301 13.333H18.667V10.667C18.6684 9.25294 19.2306 7.89637 20.2305 6.89648C21.2303 5.89679 22.5861 5.33442 24 5.33301H40ZM5.33301 16C4.62616 16.001 3.94806 16.2824 3.44824 16.7822C2.94855 17.2821 2.66791 17.9602 2.66699 18.667V53.333C2.66791 54.0398 2.94854 54.7179 3.44824 55.2178C3.94806 55.7176 4.62616 55.999 5.33301 56H58.667C59.3738 55.999 60.0519 55.7176 60.5518 55.2178C61.0515 54.7179 61.3321 54.0398 61.333 53.333V18.667C61.3321 17.9602 61.0514 17.2821 60.5518 16.7822C60.0519 16.2824 59.3738 16.001 58.667 16H5.33301ZM36 24C36.1751 23.9999 36.3489 24.0346 36.5107 24.1016C36.6725 24.1685 36.8196 24.2668 36.9434 24.3906C37.0671 24.5144 37.1655 24.6615 37.2324 24.8232C37.2993 24.9849 37.334 25.1581 37.334 25.333V32H44C44.1751 31.9999 44.3489 32.0346 44.5107 32.1016C44.6725 32.1685 44.8196 32.2668 44.9434 32.3906C45.0671 32.5144 45.1655 32.6615 45.2324 32.8232C45.2993 32.9849 45.334 33.1581 45.334 33.333V41.333C45.3341 41.5081 45.2994 41.6819 45.2324 41.8438C45.1655 42.0056 45.0672 42.1525 44.9434 42.2764C44.8195 42.4002 44.6725 42.4985 44.5107 42.5654C44.3489 42.6324 44.1751 42.6671 44 42.667H37.334V49.333C37.3341 49.5081 37.2994 49.6819 37.2324 49.8438C37.1655 50.0056 37.0672 50.1525 36.9434 50.2764C36.8195 50.4002 36.6725 50.4985 36.5107 50.5654C36.3489 50.6324 36.1751 50.6671 36 50.667H28C27.8251 50.667 27.6519 50.6323 27.4902 50.5654C27.3285 50.4985 27.1814 50.4001 27.0576 50.2764C26.9338 50.1526 26.8355 50.0055 26.7686 49.8438C26.7016 49.6819 26.6669 49.5081 26.667 49.333V42.667H20C19.8251 42.667 19.6519 42.6323 19.4902 42.5654C19.3285 42.4985 19.1814 42.4001 19.0576 42.2764C18.9338 42.1526 18.8355 42.0055 18.7686 41.8438C18.7016 41.6819 18.6669 41.5081 18.667 41.333V33.333C18.6669 33.158 18.7017 32.9849 18.7686 32.8232C18.8355 32.6614 18.9338 32.5145 19.0576 32.3906C19.1814 32.2668 19.3284 32.1685 19.4902 32.1016C19.6519 32.0347 19.825 31.9999 20 32H26.667V25.333C26.6669 25.158 26.7017 24.9849 26.7686 24.8232C26.8355 24.6614 26.9338 24.5145 27.0576 24.3906C27.1814 24.2668 27.3284 24.1685 27.4902 24.1016C27.6519 24.0347 27.825 23.9999 28 24H36ZM29.334 26.667V33.333C29.3341 33.5081 29.2994 33.6819 29.2324 33.8438C29.1655 34.0056 29.0672 34.1525 28.9434 34.2764C28.8195 34.4002 28.6725 34.4985 28.5107 34.5654C28.3489 34.6324 28.1751 34.6671 28 34.667H21.334V40H28C28.1751 39.9999 28.3489 40.0346 28.5107 40.1016C28.6725 40.1685 28.8196 40.2668 28.9434 40.3906C29.0671 40.5144 29.1655 40.6615 29.2324 40.8232C29.2993 40.9849 29.334 41.1581 29.334 41.333V48H34.667V41.333C34.6669 41.158 34.7017 40.9849 34.7686 40.8232C34.8355 40.6614 34.9338 40.5145 35.0576 40.3906C35.1814 40.2668 35.3284 40.1685 35.4902 40.1016C35.6519 40.0347 35.825 39.9999 36 40H42.667V34.667H36C35.8251 34.6671 35.6519 34.6323 35.4902 34.5654C35.3285 34.4985 35.1814 34.4001 35.0576 34.2764C34.9338 34.1526 34.8355 34.0055 34.7686 33.8438C34.7016 33.6819 34.6669 33.5081 34.667 33.333V26.667H29.334ZM24 8C23.293 8.00092 22.6151 8.28233 22.1152 8.78223C21.6154 9.28211 21.3339 9.96011 21.333 10.667V13.333H42.667V10.667C42.6661 9.96011 42.3846 9.28211 41.8848 8.78223C41.3849 8.28233 40.707 8.00092 40 8H24Z" fill="#FFD166"/>
<path d="M40 5.33301L40.0005 4.83301H40V5.33301ZM43.7695 6.89648L44.1231 6.54293L44.1231 6.5429L43.7695 6.89648ZM45.333 10.667H45.833V10.6665L45.333 10.667ZM45.333 13.333H44.833V13.833H45.333V13.333ZM58.667 13.333L58.6675 12.833H58.667V13.333ZM62.4365 14.8965L62.7901 14.5429L62.7901 14.5429L62.4365 14.8965ZM64 18.667H64.5V18.6665L64 18.667ZM64 53.333L64.5 53.3335V53.333H64ZM62.4365 57.1025L62.7901 57.4561L62.7901 57.4561L62.4365 57.1025ZM58.667 58.667V59.167H58.6675L58.667 58.667ZM5.33301 58.667L5.33248 59.167H5.33301V58.667ZM1.56348 57.1025L1.20989 57.4561L1.20992 57.4561L1.56348 57.1025ZM0 53.333H-0.5L-0.5 53.3335L0 53.333ZM0 18.667L-0.5 18.6665V18.667H0ZM1.56348 14.8965L1.20994 14.5429L1.20992 14.5429L1.56348 14.8965ZM5.33301 13.333V12.833L5.33248 12.833L5.33301 13.333ZM18.667 13.333V13.833H19.167V13.333H18.667ZM18.667 10.667L18.167 10.6665V10.667H18.667ZM20.2305 6.89648L19.8769 6.5429L19.8769 6.54293L20.2305 6.89648ZM24 5.33301V4.83301L23.9995 4.83301L24 5.33301ZM5.33301 16V15.5L5.3323 15.5L5.33301 16ZM3.44824 16.7822L3.09469 16.4287L3.09463 16.4287L3.44824 16.7822ZM2.66699 18.667L2.16699 18.6663V18.667H2.66699ZM2.66699 53.333H2.16699L2.16699 53.3337L2.66699 53.333ZM3.44824 55.2178L3.09463 55.5713L3.09469 55.5713L3.44824 55.2178ZM5.33301 56L5.3323 56.5H5.33301V56ZM58.667 56V56.5H58.6677L58.667 56ZM60.5518 55.2178L60.9053 55.5713L60.9054 55.5713L60.5518 55.2178ZM61.333 53.333L61.833 53.3337V53.333H61.333ZM61.333 18.667H61.833V18.6663L61.333 18.667ZM60.5518 16.7822L60.9054 16.4287L60.9053 16.4287L60.5518 16.7822ZM58.667 16L58.6677 15.5H58.667V16ZM36 24V24.5H36.0003L36 24ZM36.5107 24.1016L36.702 23.6396L36.702 23.6396L36.5107 24.1016ZM36.9434 24.3906L37.297 24.0371L37.2969 24.0371L36.9434 24.3906ZM37.2324 24.8232L37.6945 24.6321L37.6944 24.632L37.2324 24.8232ZM37.334 25.333L36.834 25.3328V25.333H37.334ZM37.334 32H36.834V32.5H37.334V32ZM44 32V32.5H44.0003L44 32ZM44.5107 32.1016L44.702 31.6396L44.702 31.6396L44.5107 32.1016ZM44.9434 32.3906L45.297 32.0371L45.2969 32.0371L44.9434 32.3906ZM45.2324 32.8232L45.6945 32.6321L45.6944 32.632L45.2324 32.8232ZM45.334 33.333L44.834 33.3328V33.333H45.334ZM45.334 41.333H44.834V41.3333L45.334 41.333ZM45.2324 41.8438L45.6944 42.035L45.6944 42.035L45.2324 41.8438ZM44.9434 42.2764L45.2969 42.6299L44.9434 42.2764ZM44.5107 42.5654L44.702 43.0274L44.702 43.0274L44.5107 42.5654ZM44 42.667L44.0003 42.167H44V42.667ZM37.334 42.667V42.167H36.834V42.667H37.334ZM37.334 49.333H36.834V49.3333L37.334 49.333ZM37.2324 49.8438L37.6944 50.035L37.6944 50.035L37.2324 49.8438ZM36.9434 50.2764L37.2969 50.6299L36.9434 50.2764ZM36.5107 50.5654L36.702 51.0274L36.702 51.0274L36.5107 50.5654ZM36 50.667L36.0003 50.167H36V50.667ZM28 50.667V50.167H27.9998L28 50.667ZM27.4902 50.5654L27.299 51.0274L27.2991 51.0275L27.4902 50.5654ZM27.0576 50.2764L26.7041 50.6299L26.7041 50.63L27.0576 50.2764ZM26.7686 49.8438L26.3066 50.035L26.3066 50.035L26.7686 49.8438ZM26.667 49.333L27.167 49.3333V49.333H26.667ZM26.667 42.667H27.167V42.167H26.667V42.667ZM20 42.667V42.167H19.9998L20 42.667ZM19.4902 42.5654L19.299 43.0274L19.2991 43.0275L19.4902 42.5654ZM19.0576 42.2764L18.7041 42.6299L18.7041 42.63L19.0576 42.2764ZM18.7686 41.8438L18.3066 42.035L18.3066 42.035L18.7686 41.8438ZM18.667 41.333L19.167 41.3333V41.333H18.667ZM18.667 33.333H19.167V33.3328L18.667 33.333ZM18.7686 32.8232L18.3066 32.632L18.3065 32.6321L18.7686 32.8232ZM19.0576 32.3906L18.7041 32.0371L19.0576 32.3906ZM19.4902 32.1016L19.2991 31.6395L19.299 31.6396L19.4902 32.1016ZM20 32L19.9998 32.5H20V32ZM26.667 32V32.5H27.167V32H26.667ZM26.667 25.333H27.167V25.3328L26.667 25.333ZM26.7686 24.8232L26.3066 24.632L26.3065 24.6321L26.7686 24.8232ZM27.0576 24.3906L26.7041 24.0371L27.0576 24.3906ZM27.4902 24.1016L27.2991 23.6395L27.299 23.6396L27.4902 24.1016ZM28 24L27.9998 24.5H28V24ZM29.334 26.667V26.167H28.834V26.667H29.334ZM29.334 33.333H28.834V33.3333L29.334 33.333ZM29.2324 33.8438L29.6944 34.035L29.6944 34.035L29.2324 33.8438ZM28.5107 34.5654L28.702 35.0274L28.702 35.0274L28.5107 34.5654ZM28 34.667L28.0003 34.167H28V34.667ZM21.334 34.667V34.167H20.834V34.667H21.334ZM21.334 40H20.834V40.5H21.334V40ZM28 40V40.5H28.0003L28 40ZM28.5107 40.1016L28.702 39.6396L28.702 39.6396L28.5107 40.1016ZM28.9434 40.3906L29.297 40.0371L29.2969 40.0371L28.9434 40.3906ZM29.2324 40.8232L29.6945 40.6321L29.6944 40.632L29.2324 40.8232ZM29.334 41.333L28.834 41.3328V41.333H29.334ZM29.334 48H28.834V48.5H29.334V48ZM34.667 48V48.5H35.167V48H34.667ZM34.667 41.333H35.167V41.3328L34.667 41.333ZM34.7686 40.8232L34.3066 40.632L34.3065 40.6321L34.7686 40.8232ZM35.4902 40.1016L35.2991 39.6395L35.299 39.6396L35.4902 40.1016ZM36 40L35.9998 40.5H36V40ZM42.667 40V40.5H43.167V40H42.667ZM42.667 34.667H43.167V34.167H42.667V34.667ZM36 34.667V34.167H35.9998L36 34.667ZM35.4902 34.5654L35.299 35.0274L35.2991 35.0275L35.4902 34.5654ZM35.0576 34.2764L34.7041 34.6299L34.7041 34.63L35.0576 34.2764ZM34.7686 33.8438L34.3066 34.035L34.3066 34.035L34.7686 33.8438ZM34.667 33.333L35.167 33.3333V33.333H34.667ZM34.667 26.667H35.167V26.167H34.667V26.667ZM24 8V7.5L23.9994 7.5L24 8ZM22.1152 8.78223L21.7617 8.42867L21.7616 8.42871L22.1152 8.78223ZM21.333 10.667L20.833 10.6663V10.667H21.333ZM21.333 13.333H20.833V13.833H21.333V13.333ZM42.667 13.333V13.833H43.167V13.333H42.667ZM42.667 10.667H43.167V10.6663L42.667 10.667ZM41.8848 8.78223L42.2383 8.42871L42.2383 8.42867L41.8848 8.78223ZM40 8L40.0006 7.5H40V8ZM40 5.33301L39.9995 5.83301C41.281 5.83429 42.5098 6.34399 43.416 7.25007L43.7695 6.89648L44.1231 6.5429C43.0296 5.4496 41.5468 4.83455 40.0005 4.83301L40 5.33301ZM43.7695 6.89648L43.416 7.25004C44.3221 8.15619 44.8317 9.38575 44.833 10.6675L45.333 10.667L45.833 10.6665C45.8315 9.12013 45.2167 7.63655 44.1231 6.54293L43.7695 6.89648ZM45.333 10.667H44.833V13.333H45.333H45.833V10.667H45.333ZM45.333 13.333V13.833H58.667V13.333V12.833H45.333V13.333ZM58.667 13.333L58.6665 13.833C59.9479 13.8344 61.1769 14.344 62.083 15.2501L62.4365 14.8965L62.7901 14.5429C61.6966 13.4495 60.2138 12.8346 58.6675 12.833L58.667 13.333ZM62.4365 14.8965L62.083 15.25C62.9891 16.1562 63.4987 17.3857 63.5 18.6675L64 18.667L64.5 18.6665C64.4985 17.1201 63.8837 15.6366 62.7901 14.5429L62.4365 14.8965ZM64 18.667H63.5V53.333H64H64.5V18.667H64ZM64 53.333L63.5 53.3325C63.4987 54.614 62.989 55.8428 62.0829 56.749L62.4365 57.1025L62.7901 57.4561C63.8834 56.3626 64.4985 54.8799 64.5 53.3335L64 53.333ZM62.4365 57.1025L62.083 56.749C61.1767 57.6553 59.9478 58.1656 58.6665 58.167L58.667 58.667L58.6675 59.167C60.2141 59.1654 61.6968 58.5494 62.7901 57.4561L62.4365 57.1025ZM58.667 58.667V58.167H5.33301V58.667V59.167H58.667V58.667ZM5.33301 58.667L5.33354 58.167C4.0522 58.1656 2.82333 57.6553 1.91703 56.749L1.56348 57.1025L1.20992 57.4561C2.30325 58.5494 3.78594 59.1654 5.33248 59.167L5.33301 58.667ZM1.56348 57.1025L1.91706 56.749C1.01098 55.8428 0.501279 54.614 0.5 53.3325L0 53.333L-0.5 53.3335C-0.498456 54.8798 0.116586 56.3626 1.20989 57.4561L1.56348 57.1025ZM0 53.333H0.5V18.667H0H-0.5V53.333H0ZM0 18.667L0.5 18.6675C0.50128 17.3857 1.01088 16.1562 1.91703 15.25L1.56348 14.8965L1.20992 14.5429C0.1163 15.6366 -0.498456 17.1201 -0.5 18.6665L0 18.667ZM1.56348 14.8965L1.91702 15.2501C2.82315 14.344 4.05205 13.8344 5.33354 13.833L5.33301 13.333L5.33248 12.833C3.78623 12.8346 2.3034 13.4495 1.20994 14.5429L1.56348 14.8965ZM5.33301 13.333V13.833H18.667V13.333V12.833H5.33301V13.333ZM18.667 13.333H19.167V10.667H18.667H18.167V13.333H18.667ZM18.667 10.667L19.167 10.6675C19.1683 9.38575 19.6779 8.15619 20.584 7.25004L20.2305 6.89648L19.8769 6.54293C18.7833 7.63655 18.1685 9.12013 18.167 10.6665L18.667 10.667ZM20.2305 6.89648L20.584 7.25007C21.4902 6.34399 22.719 5.83429 24.0005 5.83301L24 5.33301L23.9995 4.83301C22.4532 4.83455 20.9704 5.44959 19.8769 6.5429L20.2305 6.89648ZM24 5.33301V5.83301H40V5.33301V4.83301H24V5.33301ZM5.33301 16L5.3323 15.5C4.49311 15.5012 3.68812 15.8352 3.09469 16.4287L3.44824 16.7822L3.8018 17.1358C4.20801 16.7296 4.75922 16.5008 5.33372 16.5L5.33301 16ZM3.44824 16.7822L3.09463 16.4287C2.50114 17.0224 2.16808 17.8275 2.16699 18.6663L2.66699 18.667L3.16699 18.6676C3.16774 18.0929 3.39597 17.5417 3.80186 17.1357L3.44824 16.7822ZM2.66699 18.667H2.16699V53.333H2.66699H3.16699V18.667H2.66699ZM2.66699 53.333L2.16699 53.3337C2.16808 54.1725 2.50112 54.9776 3.09463 55.5713L3.44824 55.2178L3.80185 54.8643C3.39596 54.4583 3.16774 53.9072 3.16699 53.3324L2.66699 53.333ZM3.44824 55.2178L3.09469 55.5713C3.68812 56.1648 4.49311 56.4988 5.3323 56.5L5.33301 56L5.33372 55.5C4.75922 55.4992 4.20801 55.2704 3.8018 54.8642L3.44824 55.2178ZM5.33301 56V56.5H58.667V56V55.5H5.33301V56ZM58.667 56L58.6677 56.5C59.5069 56.4988 60.3119 56.1648 60.9053 55.5713L60.5518 55.2178L60.1982 54.8642C59.792 55.2704 59.2408 55.4992 58.6663 55.5L58.667 56ZM60.5518 55.2178L60.9054 55.5713C61.4989 54.9776 61.8319 54.1725 61.833 53.3337L61.333 53.333L60.833 53.3324C60.8323 53.9072 60.604 54.4583 60.1981 54.8643L60.5518 55.2178ZM61.333 53.333H61.833V18.667H61.333H60.833V53.333H61.333ZM61.333 18.667L61.833 18.6663C61.8319 17.8275 61.4989 17.0224 60.9054 16.4287L60.5518 16.7822L60.1981 17.1357C60.604 17.5417 60.8323 18.0929 60.833 18.6676L61.333 18.667ZM60.5518 16.7822L60.9053 16.4287C60.3119 15.8352 59.5069 15.5012 58.6677 15.5L58.667 16L58.6663 16.5C59.2408 16.5008 59.792 16.7296 60.1982 17.1358L60.5518 16.7822ZM58.667 16V15.5H5.33301V16V16.5H58.667V16ZM36 24L36.0003 24.5C36.1093 24.4999 36.2181 24.5216 36.3195 24.5636L36.5107 24.1016L36.702 23.6396C36.4798 23.5476 36.2409 23.4999 35.9997 23.5L36 24ZM36.5107 24.1016L36.3195 24.5635C36.4205 24.6053 36.5124 24.6668 36.5898 24.7442L36.9434 24.3906L37.2969 24.0371C37.1267 23.8669 36.9245 23.7317 36.702 23.6396L36.5107 24.1016ZM36.9434 24.3906L36.5897 24.7441C36.6672 24.8216 36.7287 24.9136 36.7704 25.0145L37.2324 24.8232L37.6944 24.632C37.6023 24.4094 37.467 24.2072 37.297 24.0371L36.9434 24.3906ZM37.2324 24.8232L36.7704 25.0144C36.8124 25.116 36.834 25.2243 36.834 25.3328L37.334 25.333L37.834 25.3332C37.8341 25.0919 37.7861 24.8537 37.6945 24.6321L37.2324 24.8232ZM37.334 25.333H36.834V32H37.334H37.834V25.333H37.334ZM37.334 32V32.5H44V32V31.5H37.334V32ZM44 32L44.0003 32.5C44.1093 32.4999 44.2181 32.5216 44.3195 32.5636L44.5107 32.1016L44.702 31.6396C44.4798 31.5476 44.2409 31.4999 43.9997 31.5L44 32ZM44.5107 32.1016L44.3195 32.5635C44.4205 32.6053 44.5124 32.6668 44.5898 32.7442L44.9434 32.3906L45.2969 32.0371C45.1267 31.8669 44.9245 31.7317 44.702 31.6396L44.5107 32.1016ZM44.9434 32.3906L44.5897 32.7441C44.6672 32.8216 44.7287 32.9136 44.7704 33.0145L45.2324 32.8232L45.6944 32.632C45.6023 32.4094 45.467 32.2072 45.297 32.0371L44.9434 32.3906ZM45.2324 32.8232L44.7704 33.0144C44.8124 33.116 44.834 33.2243 44.834 33.3328L45.334 33.333L45.834 33.3332C45.8341 33.0919 45.7861 32.8537 45.6945 32.6321L45.2324 32.8232ZM45.334 33.333H44.834V41.333H45.334H45.834V33.333H45.334ZM45.334 41.333L44.834 41.3333C44.834 41.4423 44.8124 41.5511 44.7704 41.6525L45.2324 41.8438L45.6944 42.035C45.7864 41.8128 45.8341 41.5739 45.834 41.3327L45.334 41.333ZM45.2324 41.8438L44.7704 41.6525C44.7286 41.7535 44.6673 41.8454 44.5898 41.9228L44.9434 42.2764L45.2969 42.6299C45.4671 42.4597 45.6023 42.2576 45.6944 42.035L45.2324 41.8438ZM44.9434 42.2764L44.5898 41.9228C44.5123 42.0003 44.4205 42.0616 44.3195 42.1034L44.5107 42.5654L44.702 43.0274C44.9246 42.9353 45.1267 42.8001 45.2969 42.6299L44.9434 42.2764ZM44.5107 42.5654L44.3195 42.1034C44.2181 42.1454 44.1093 42.1671 44.0003 42.167L44 42.667L43.9997 43.167C44.2409 43.1671 44.4798 43.1194 44.702 43.0274L44.5107 42.5654ZM44 42.667V42.167H37.334V42.667V43.167H44V42.667ZM37.334 42.667H36.834V49.333H37.334H37.834V42.667H37.334ZM37.334 49.333L36.834 49.3333C36.834 49.4423 36.8124 49.5511 36.7704 49.6525L37.2324 49.8438L37.6944 50.035C37.7864 49.8128 37.8341 49.5739 37.834 49.3327L37.334 49.333ZM37.2324 49.8438L36.7704 49.6525C36.7286 49.7535 36.6673 49.8454 36.5898 49.9228L36.9434 50.2764L37.2969 50.6299C37.4671 50.4597 37.6023 50.2576 37.6944 50.035L37.2324 49.8438ZM36.9434 50.2764L36.5898 49.9228C36.5123 50.0003 36.4205 50.0616 36.3195 50.1034L36.5107 50.5654L36.702 51.0274C36.9246 50.9353 37.1267 50.8001 37.2969 50.6299L36.9434 50.2764ZM36.5107 50.5654L36.3195 50.1034C36.2181 50.1454 36.1093 50.1671 36.0003 50.167L36 50.667L35.9997 51.167C36.2409 51.1671 36.4798 51.1194 36.702 51.0274L36.5107 50.5654ZM36 50.667V50.167H28V50.667V51.167H36V50.667ZM28 50.667L27.9998 50.167C27.8913 50.167 27.783 50.1455 27.6813 50.1034L27.4902 50.5654L27.2991 51.0275C27.5207 51.1191 27.7589 51.1671 28.0002 51.167L28 50.667ZM27.4902 50.5654L27.6814 50.1034C27.5806 50.0617 27.4886 50.0002 27.4111 49.9228L27.0576 50.2764L26.7041 50.63C26.8742 50.8 27.0764 50.9353 27.299 51.0274L27.4902 50.5654ZM27.0576 50.2764L27.4112 49.9228C27.3338 49.8454 27.2723 49.7535 27.2305 49.6525L26.7686 49.8438L26.3066 50.035C26.3987 50.2575 26.5339 50.4597 26.7041 50.6299L27.0576 50.2764ZM26.7686 49.8438L27.2306 49.6525C27.1886 49.5511 27.1669 49.4423 27.167 49.3333L26.667 49.333L26.167 49.3327C26.1669 49.5739 26.2146 49.8128 26.3066 50.035L26.7686 49.8438ZM26.667 49.333H27.167V42.667H26.667H26.167V49.333H26.667ZM26.667 42.667V42.167H20V42.667V43.167H26.667V42.667ZM20 42.667L19.9998 42.167C19.8913 42.167 19.783 42.1455 19.6813 42.1034L19.4902 42.5654L19.2991 43.0275C19.5207 43.1191 19.7589 43.1671 20.0002 43.167L20 42.667ZM19.4902 42.5654L19.6814 42.1034C19.5806 42.0617 19.4886 42.0002 19.4111 41.9228L19.0576 42.2764L18.7041 42.63C18.8742 42.8 19.0764 42.9353 19.299 43.0274L19.4902 42.5654ZM19.0576 42.2764L19.4112 41.9228C19.3338 41.8454 19.2723 41.7535 19.2305 41.6525L18.7686 41.8438L18.3066 42.035C18.3987 42.2575 18.5339 42.4597 18.7041 42.6299L19.0576 42.2764ZM18.7686 41.8438L19.2306 41.6525C19.1886 41.5511 19.1669 41.4423 19.167 41.3333L18.667 41.333L18.167 41.3327C18.1669 41.5739 18.2146 41.8128 18.3066 42.035L18.7686 41.8438ZM18.667 41.333H19.167V33.333H18.667H18.167V41.333H18.667ZM18.667 33.333L19.167 33.3328C19.167 33.2242 19.1885 33.116 19.2306 33.0144L18.7686 32.8232L18.3065 32.6321C18.2148 32.8538 18.1669 33.0919 18.167 33.3332L18.667 33.333ZM18.7686 32.8232L19.2306 33.0145C19.2723 32.9135 19.3337 32.8216 19.4112 32.7442L19.0576 32.3906L18.7041 32.0371C18.5339 32.2073 18.3987 32.4094 18.3066 32.632L18.7686 32.8232ZM19.0576 32.3906L19.4112 32.7442C19.4886 32.6667 19.5805 32.6053 19.6814 32.5636L19.4902 32.1016L19.299 31.6396C19.0764 31.7317 18.8743 31.8669 18.7041 32.0371L19.0576 32.3906ZM19.4902 32.1016L19.6814 32.5636C19.783 32.5215 19.8912 32.5 19.9998 32.5L20 32L20.0002 31.5C19.7589 31.4999 19.5208 31.5478 19.2991 31.6395L19.4902 32.1016ZM20 32V32.5H26.667V32V31.5H20V32ZM26.667 32H27.167V25.333H26.667H26.167V32H26.667ZM26.667 25.333L27.167 25.3328C27.167 25.2242 27.1885 25.116 27.2306 25.0144L26.7686 24.8232L26.3065 24.6321C26.2148 24.8538 26.1669 25.0919 26.167 25.3332L26.667 25.333ZM26.7686 24.8232L27.2306 25.0145C27.2723 24.9135 27.3337 24.8216 27.4112 24.7442L27.0576 24.3906L26.7041 24.0371C26.5339 24.2073 26.3987 24.4094 26.3066 24.632L26.7686 24.8232ZM27.0576 24.3906L27.4112 24.7442C27.4886 24.6667 27.5805 24.6053 27.6814 24.5636L27.4902 24.1016L27.299 23.6396C27.0764 23.7317 26.8743 23.8669 26.7041 24.0371L27.0576 24.3906ZM27.4902 24.1016L27.6814 24.5636C27.783 24.5215 27.8912 24.5 27.9998 24.5L28 24L28.0002 23.5C27.7589 23.4999 27.5208 23.5478 27.2991 23.6395L27.4902 24.1016ZM28 24V24.5H36V24V23.5H28V24ZM29.334 26.667H28.834V33.333H29.334H29.834V26.667H29.334ZM29.334 33.333L28.834 33.3333C28.834 33.4423 28.8124 33.5511 28.7704 33.6525L29.2324 33.8438L29.6944 34.035C29.7864 33.8128 29.8341 33.5739 29.834 33.3327L29.334 33.333ZM29.2324 33.8438L28.7704 33.6525C28.7286 33.7535 28.6673 33.8454 28.5898 33.9228L28.9434 34.2764L29.2969 34.6299C29.4671 34.4597 29.6023 34.2576 29.6944 34.035L29.2324 33.8438ZM28.9434 34.2764L28.5898 33.9228C28.5123 34.0003 28.4205 34.0616 28.3195 34.1034L28.5107 34.5654L28.702 35.0274C28.9246 34.9353 29.1267 34.8001 29.2969 34.6299L28.9434 34.2764ZM28.5107 34.5654L28.3195 34.1034C28.2181 34.1454 28.1093 34.1671 28.0003 34.167L28 34.667L27.9997 35.167C28.2409 35.1671 28.4798 35.1194 28.702 35.0274L28.5107 34.5654ZM28 34.667V34.167H21.334V34.667V35.167H28V34.667ZM21.334 34.667H20.834V40H21.334H21.834V34.667H21.334ZM21.334 40V40.5H28V40V39.5H21.334V40ZM28 40L28.0003 40.5C28.1093 40.4999 28.2181 40.5216 28.3195 40.5636L28.5107 40.1016L28.702 39.6396C28.4798 39.5476 28.2409 39.4999 27.9997 39.5L28 40ZM28.5107 40.1016L28.3195 40.5635C28.4205 40.6053 28.5124 40.6668 28.5898 40.7442L28.9434 40.3906L29.2969 40.0371C29.1267 39.8669 28.9245 39.7317 28.702 39.6396L28.5107 40.1016ZM28.9434 40.3906L28.5897 40.7441C28.6672 40.8216 28.7287 40.9136 28.7704 41.0145L29.2324 40.8232L29.6944 40.632C29.6023 40.4094 29.467 40.2072 29.297 40.0371L28.9434 40.3906ZM29.2324 40.8232L28.7704 41.0144C28.8124 41.116 28.834 41.2243 28.834 41.3328L29.334 41.333L29.834 41.3332C29.8341 41.0919 29.7861 40.8537 29.6945 40.6321L29.2324 40.8232ZM29.334 41.333H28.834V48H29.334H29.834V41.333H29.334ZM29.334 48V48.5H34.667V48V47.5H29.334V48ZM34.667 48H35.167V41.333H34.667H34.167V48H34.667ZM34.667 41.333L35.167 41.3328C35.167 41.2242 35.1885 41.116 35.2306 41.0144L34.7686 40.8232L34.3065 40.6321C34.2148 40.8538 34.1669 41.0919 34.167 41.3332L34.667 41.333ZM34.7686 40.8232L35.2305 41.0145C35.2723 40.9135 35.3337 40.8216 35.4112 40.7442L35.0576 40.3906L34.7041 40.0371C34.5339 40.2073 34.3987 40.4094 34.3066 40.632L34.7686 40.8232ZM35.0576 40.3906L35.4112 40.7442C35.4886 40.6667 35.5805 40.6053 35.6814 40.5636L35.4902 40.1016L35.299 39.6396C35.0764 39.7317 34.8743 39.8669 34.7041 40.0371L35.0576 40.3906ZM35.4902 40.1016L35.6814 40.5636C35.783 40.5215 35.8912 40.5 35.9998 40.5L36 40L36.0002 39.5C35.7589 39.4999 35.5208 39.5478 35.2991 39.6395L35.4902 40.1016ZM36 40V40.5H42.667V40V39.5H36V40ZM42.667 40H43.167V34.667H42.667H42.167V40H42.667ZM42.667 34.667V34.167H36V34.667V35.167H42.667V34.667ZM36 34.667L35.9998 34.167C35.8913 34.167 35.783 34.1455 35.6813 34.1034L35.4902 34.5654L35.2991 35.0275C35.5207 35.1191 35.7589 35.1671 36.0002 35.167L36 34.667ZM35.4902 34.5654L35.6814 34.1034C35.5806 34.0617 35.4886 34.0002 35.4111 33.9228L35.0576 34.2764L34.7041 34.63C34.8742 34.8 35.0764 34.9353 35.299 35.0274L35.4902 34.5654ZM35.0576 34.2764L35.4112 33.9228C35.3338 33.8454 35.2723 33.7535 35.2305 33.6525L34.7686 33.8438L34.3066 34.035C34.3987 34.2575 34.5339 34.4597 34.7041 34.6299L35.0576 34.2764ZM34.7686 33.8438L35.2305 33.6525C35.1886 33.5511 35.1669 33.4423 35.167 33.3333L34.667 33.333L34.167 33.3327C34.1669 33.5739 34.2146 33.8128 34.3066 34.035L34.7686 33.8438ZM34.667 33.333H35.167V26.667H34.667H34.167V33.333H34.667ZM34.667 26.667V26.167H29.334V26.667V27.167H34.667V26.667ZM24 8L23.9994 7.5C23.16 7.50109 22.3552 7.8352 21.7617 8.42867L22.1152 8.78223L22.4688 9.13578C22.8751 8.72946 23.4261 8.50075 24.0006 8.5L24 8ZM22.1152 8.78223L21.7616 8.42871C21.1683 9.02213 20.8341 9.827 20.833 10.6663L21.333 10.667L21.833 10.6676C21.8338 10.0932 22.0626 9.54209 22.4688 9.13575L22.1152 8.78223ZM21.333 10.667H20.833V13.333H21.333H21.833V10.667H21.333ZM21.333 13.333V13.833H42.667V13.333V12.833H21.333V13.333ZM42.667 13.333H43.167V10.667H42.667H42.167V13.333H42.667ZM42.667 10.667L43.167 10.6663C43.1659 9.827 42.8317 9.02213 42.2383 8.42871L41.8848 8.78223L41.5312 9.13575C41.9375 9.54209 42.1662 10.0932 42.167 10.6676L42.667 10.667ZM41.8848 8.78223L42.2383 8.42867C41.6448 7.8352 40.84 7.50109 40.0006 7.5L40 8L39.9994 8.5C40.5739 8.50075 41.1249 8.72946 41.5312 9.13578L41.8848 8.78223ZM40 8V7.5H24V8V8.5H40V8Z" fill="#121212" mask="url(#path-1-inside-1_1747_15)"/>
</svg>
