<svg width="64" height="64" viewBox="0 0 64 64" fill="none" xmlns="http://www.w3.org/2000/svg">
<mask id="path-1-inside-1_1747_353" fill="white">
<path d="M54.4019 23.5516C54.412 23.3519 54.4175 23.1581 54.4175 22.9704C54.4179 16.738 50.0239 11.5493 44.3191 11.0466C44.2914 11.0188 44.2604 10.9955 44.2327 10.9685C44.153 10.894 44.0825 10.809 44.0019 10.7359C43.9721 10.7163 43.9419 10.6989 43.91 10.6834C41.1684 8.22929 37.4978 7.39222 34.0823 8.44222C34.0559 8.44816 34.029 8.44222 34.0026 8.44953C33.8285 8.50344 33.6577 8.56833 33.4873 8.63092C30.5523 6.38198 26.6169 6.46605 23.765 8.83882H23.7566C23.7192 8.81872 23.6844 8.79084 23.6458 8.77165C23.6072 8.75292 23.5933 8.76069 23.5677 8.75064C22.6086 8.25991 21.5625 8.00312 20.5026 7.99809C17.8869 8.00815 15.4725 9.52785 14.1588 11.9906H14.0862C10.1236 11.9934 6.87803 15.4203 6.75341 19.7336C3.96144 22.1566 3.18604 26.4224 4.92021 29.8209V29.9575C4.92567 35.4675 9.02635 39.9329 14.0862 39.9389C14.2238 39.9389 14.3615 39.9389 14.5071 39.9261C14.5117 39.943 14.518 39.9581 14.5226 39.9741C14.5906 40.2048 14.6657 40.4324 14.7483 40.6567L14.7718 40.7198C15.4885 42.6585 16.7586 44.2951 18.3946 45.3881L18.4395 45.4187C18.627 45.5457 18.818 45.6654 19.0131 45.7774C19.0554 45.8011 19.0995 45.8221 19.1415 45.8459C19.4218 45.9999 19.7088 46.1374 20.0021 46.2585C20.1321 46.3133 20.2618 46.37 20.3944 46.4189C20.5072 46.4591 20.6226 46.492 20.7372 46.529C20.9021 46.5806 21.0682 46.6286 21.2361 46.6716C21.3422 46.6976 21.4475 46.7214 21.555 46.7433C21.7446 46.7835 21.9364 46.8141 22.1298 46.8434C22.2213 46.8552 22.3127 46.8703 22.3983 46.879C22.6824 46.9091 22.9673 46.9279 23.256 46.9279C24.9587 46.9215 26.6257 46.3969 28.0691 45.4137C28.6805 47.515 30.4772 48.9374 32.5013 48.9223C32.7656 48.9223 33.0182 49.0443 33.1949 49.2586L38.5048 55.8825C39.044 56.5323 39.8093 56.9042 40.6133 56.9074C42.1616 56.906 43.4166 55.5394 43.4178 53.8534V49.8357C43.8744 49.891 44.3334 49.9193 44.7928 49.9207C50.605 49.9207 55.3338 45.6663 55.3338 40.4383C55.3334 39.6318 55.2193 38.8304 54.9957 38.0614C57.5577 36.6431 59.1207 33.7244 58.9927 30.5981C58.8647 27.4714 57.0693 24.7158 54.4019 23.5516ZM40.604 54.9111C40.3246 54.9079 40.0594 54.7791 39.8706 54.5547L34.569 47.9422C34.0223 47.2788 33.2373 46.9078 32.4186 46.9261C30.9387 46.9215 29.7274 45.6421 29.6779 44.0315C30.0735 43.6152 30.434 43.1611 30.7541 42.674C30.7906 42.6927 30.8301 42.7051 30.867 42.7229C30.9585 42.7667 31.0499 42.8225 31.1418 42.8604C31.1741 42.87 31.2073 42.8769 31.2408 42.8814C32.4379 43.4146 33.7022 43.7487 34.9907 43.8716C36.333 46.6953 38.7457 48.735 41.5901 49.4514V53.8534C41.5893 54.1362 41.4848 54.4072 41.2993 54.6059C41.1143 54.8047 40.8638 54.9143 40.604 54.9111ZM53.5006 40.4383C53.5006 44.5665 49.5942 47.9244 44.7928 47.9244C44.0825 47.9276 43.3738 47.8504 42.6781 47.6937C40.4253 47.2774 38.4155 45.9076 37.087 43.8825C41.2091 43.5124 44.9191 41.0145 47.0654 37.164C48.7995 38.7011 51.0872 39.2827 53.2669 38.7413C53.4201 39.2914 53.499 39.863 53.5006 40.4383ZM51.6674 36.9447C49.2409 36.926 47.1061 35.1943 46.3953 32.6675C46.248 32.143 45.7399 31.846 45.2573 32.0022C44.7744 32.1585 44.4979 32.7095 44.638 33.2364C44.8793 34.1027 45.254 34.9178 45.7462 35.6471C44.1802 38.8002 41.3992 41.0236 38.1679 41.7071C34.9362 42.3902 31.5933 41.4613 29.0573 39.1754C28.6683 38.8231 28.0901 38.8807 27.7662 39.3047C27.4427 39.7287 27.4956 40.3579 27.8849 40.7106C28.2827 41.067 28.6994 41.3969 29.1336 41.6989C27.7515 43.7263 25.5713 44.9238 23.2526 44.9298C23.0214 44.9298 22.794 44.9147 22.567 44.8919C22.4403 44.8791 22.3165 44.858 22.1919 44.8379C22.105 44.8238 22.0169 44.811 21.9309 44.7941C21.7585 44.7589 21.5881 44.7191 21.4203 44.6712L21.3531 44.6524C19.1553 43.9981 17.3565 42.2774 16.4779 39.9878L16.4557 39.9311C16.3852 39.7424 16.3218 39.5487 16.2652 39.3531C16.2542 39.3161 16.2442 39.2782 16.2341 39.2412C16.1817 39.0525 16.1351 38.861 16.0956 38.6655C15.945 37.9262 15.8913 37.1672 15.9362 36.4115C16.2782 32.1393 19.598 28.8838 23.5359 28.9592H28.7522C30.2707 28.9592 31.5018 27.6186 31.5018 25.965C31.5018 25.4135 31.9122 24.9666 32.4186 24.9666H35.1686C35.6747 24.9666 36.085 24.5198 36.085 23.9687C36.085 23.4172 35.6747 22.9704 35.1686 22.9704H32.4186C30.9001 22.9704 29.6686 24.3109 29.6686 25.965C29.6686 26.516 29.2583 26.9629 28.7522 26.9629H23.5359C18.6321 26.8893 14.5125 30.9609 14.1055 36.2826C14.0766 36.8364 14.0883 37.3911 14.1412 37.9426H14.0862C10.9409 37.9371 8.14856 35.7503 7.14279 32.5048C7.47511 32.7612 7.82589 32.9873 8.19262 33.1806C8.64955 33.4178 9.1967 33.2062 9.41447 32.7082C9.63224 32.2106 9.43797 31.6148 8.98061 31.3781C8.01722 30.8791 7.20783 30.0859 6.65061 29.0949C6.64516 29.0853 6.64348 29.0729 6.63802 29.0633C5.12497 26.3611 5.81227 22.8429 8.20436 21.0458L8.21653 21.0349C8.91222 20.5099 9.71112 20.1681 10.549 20.0369C11.0505 19.9593 11.3991 19.4535 11.3278 18.9074C11.2565 18.3614 10.792 17.9817 10.2906 18.0594C9.76902 18.1435 9.25712 18.2888 8.76452 18.4926C9.1711 16.7608 10.2671 15.317 11.7529 14.5567C13.2386 13.7959 14.9585 13.7982 16.4431 14.5622C16.8975 14.7833 17.4312 14.5686 17.6448 14.0787C17.8584 13.5894 17.6742 13.0036 17.2294 12.7592C16.8874 12.586 16.5333 12.4421 16.1707 12.3292C17.8764 9.89795 20.9994 9.27609 23.3844 10.8927H23.3928C24.0327 11.3226 24.5853 11.8901 25.017 12.5609C25.3107 13 25.873 13.1028 26.2825 12.7916C26.6916 12.4809 26.7974 11.8709 26.5204 11.419C26.1931 10.9146 25.813 10.4531 25.3884 10.0442C27.2081 8.79998 29.4857 8.65423 31.4267 9.65807C31.2849 9.74991 31.1401 9.83764 31.0017 9.93542C30.5775 10.2365 30.4575 10.8552 30.734 11.3171C31.0105 11.7791 31.5782 11.9093 32.0024 11.6087C35.5442 9.17237 40.1446 9.61467 43.2391 12.6893C44.1177 13.5739 44.8298 14.6362 45.3354 15.8169C45.4634 16.1554 45.7512 16.3907 46.086 16.4296C46.4204 16.4689 46.7473 16.3053 46.9382 16.0033C47.1291 15.7017 47.1526 15.3106 47.0003 14.9844C46.7779 14.469 46.522 13.9718 46.2337 13.4971C50.0151 14.8185 52.5805 18.6461 52.5843 22.9704C52.5843 23.213 52.5696 23.4524 52.5541 23.6932C52.5448 23.822 52.5356 23.9504 52.5209 24.0925C52.4357 24.9529 52.2469 25.7973 51.9591 26.6038C51.8399 26.9359 51.8923 27.3124 52.0971 27.5912C52.3019 27.8694 52.6275 28.0083 52.9514 27.9544C53.2753 27.9005 53.5485 27.6629 53.6676 27.3303C53.8628 26.7751 54.0193 26.2049 54.1359 25.6246C56.4084 26.8697 57.598 29.6514 57.0105 32.3467C56.4227 35.0421 54.2114 36.9452 51.6674 36.9447Z"/>
</mask>
<path d="M54.4019 23.5516C54.412 23.3519 54.4175 23.1581 54.4175 22.9704C54.4179 16.738 50.0239 11.5493 44.3191 11.0466C44.2914 11.0188 44.2604 10.9955 44.2327 10.9685C44.153 10.894 44.0825 10.809 44.0019 10.7359C43.9721 10.7163 43.9419 10.6989 43.91 10.6834C41.1684 8.22929 37.4978 7.39222 34.0823 8.44222C34.0559 8.44816 34.029 8.44222 34.0026 8.44953C33.8285 8.50344 33.6577 8.56833 33.4873 8.63092C30.5523 6.38198 26.6169 6.46605 23.765 8.83882H23.7566C23.7192 8.81872 23.6844 8.79084 23.6458 8.77165C23.6072 8.75292 23.5933 8.76069 23.5677 8.75064C22.6086 8.25991 21.5625 8.00312 20.5026 7.99809C17.8869 8.00815 15.4725 9.52785 14.1588 11.9906H14.0862C10.1236 11.9934 6.87803 15.4203 6.75341 19.7336C3.96144 22.1566 3.18604 26.4224 4.92021 29.8209V29.9575C4.92567 35.4675 9.02635 39.9329 14.0862 39.9389C14.2238 39.9389 14.3615 39.9389 14.5071 39.9261C14.5117 39.943 14.518 39.9581 14.5226 39.9741C14.5906 40.2048 14.6657 40.4324 14.7483 40.6567L14.7718 40.7198C15.4885 42.6585 16.7586 44.2951 18.3946 45.3881L18.4395 45.4187C18.627 45.5457 18.818 45.6654 19.0131 45.7774C19.0554 45.8011 19.0995 45.8221 19.1415 45.8459C19.4218 45.9999 19.7088 46.1374 20.0021 46.2585C20.1321 46.3133 20.2618 46.37 20.3944 46.4189C20.5072 46.4591 20.6226 46.492 20.7372 46.529C20.9021 46.5806 21.0682 46.6286 21.2361 46.6716C21.3422 46.6976 21.4475 46.7214 21.555 46.7433C21.7446 46.7835 21.9364 46.8141 22.1298 46.8434C22.2213 46.8552 22.3127 46.8703 22.3983 46.879C22.6824 46.9091 22.9673 46.9279 23.256 46.9279C24.9587 46.9215 26.6257 46.3969 28.0691 45.4137C28.6805 47.515 30.4772 48.9374 32.5013 48.9223C32.7656 48.9223 33.0182 49.0443 33.1949 49.2586L38.5048 55.8825C39.044 56.5323 39.8093 56.9042 40.6133 56.9074C42.1616 56.906 43.4166 55.5394 43.4178 53.8534V49.8357C43.8744 49.891 44.3334 49.9193 44.7928 49.9207C50.605 49.9207 55.3338 45.6663 55.3338 40.4383C55.3334 39.6318 55.2193 38.8304 54.9957 38.0614C57.5577 36.6431 59.1207 33.7244 58.9927 30.5981C58.8647 27.4714 57.0693 24.7158 54.4019 23.5516ZM40.604 54.9111C40.3246 54.9079 40.0594 54.7791 39.8706 54.5547L34.569 47.9422C34.0223 47.2788 33.2373 46.9078 32.4186 46.9261C30.9387 46.9215 29.7274 45.6421 29.6779 44.0315C30.0735 43.6152 30.434 43.1611 30.7541 42.674C30.7906 42.6927 30.8301 42.7051 30.867 42.7229C30.9585 42.7667 31.0499 42.8225 31.1418 42.8604C31.1741 42.87 31.2073 42.8769 31.2408 42.8814C32.4379 43.4146 33.7022 43.7487 34.9907 43.8716C36.333 46.6953 38.7457 48.735 41.5901 49.4514V53.8534C41.5893 54.1362 41.4848 54.4072 41.2993 54.6059C41.1143 54.8047 40.8638 54.9143 40.604 54.9111ZM53.5006 40.4383C53.5006 44.5665 49.5942 47.9244 44.7928 47.9244C44.0825 47.9276 43.3738 47.8504 42.6781 47.6937C40.4253 47.2774 38.4155 45.9076 37.087 43.8825C41.2091 43.5124 44.9191 41.0145 47.0654 37.164C48.7995 38.7011 51.0872 39.2827 53.2669 38.7413C53.4201 39.2914 53.499 39.863 53.5006 40.4383ZM51.6674 36.9447C49.2409 36.926 47.1061 35.1943 46.3953 32.6675C46.248 32.143 45.7399 31.846 45.2573 32.0022C44.7744 32.1585 44.4979 32.7095 44.638 33.2364C44.8793 34.1027 45.254 34.9178 45.7462 35.6471C44.1802 38.8002 41.3992 41.0236 38.1679 41.7071C34.9362 42.3902 31.5933 41.4613 29.0573 39.1754C28.6683 38.8231 28.0901 38.8807 27.7662 39.3047C27.4427 39.7287 27.4956 40.3579 27.8849 40.7106C28.2827 41.067 28.6994 41.3969 29.1336 41.6989C27.7515 43.7263 25.5713 44.9238 23.2526 44.9298C23.0214 44.9298 22.794 44.9147 22.567 44.8919C22.4403 44.8791 22.3165 44.858 22.1919 44.8379C22.105 44.8238 22.0169 44.811 21.9309 44.7941C21.7585 44.7589 21.5881 44.7191 21.4203 44.6712L21.3531 44.6524C19.1553 43.9981 17.3565 42.2774 16.4779 39.9878L16.4557 39.9311C16.3852 39.7424 16.3218 39.5487 16.2652 39.3531C16.2542 39.3161 16.2442 39.2782 16.2341 39.2412C16.1817 39.0525 16.1351 38.861 16.0956 38.6655C15.945 37.9262 15.8913 37.1672 15.9362 36.4115C16.2782 32.1393 19.598 28.8838 23.5359 28.9592H28.7522C30.2707 28.9592 31.5018 27.6186 31.5018 25.965C31.5018 25.4135 31.9122 24.9666 32.4186 24.9666H35.1686C35.6747 24.9666 36.085 24.5198 36.085 23.9687C36.085 23.4172 35.6747 22.9704 35.1686 22.9704H32.4186C30.9001 22.9704 29.6686 24.3109 29.6686 25.965C29.6686 26.516 29.2583 26.9629 28.7522 26.9629H23.5359C18.6321 26.8893 14.5125 30.9609 14.1055 36.2826C14.0766 36.8364 14.0883 37.3911 14.1412 37.9426H14.0862C10.9409 37.9371 8.14856 35.7503 7.14279 32.5048C7.47511 32.7612 7.82589 32.9873 8.19262 33.1806C8.64955 33.4178 9.1967 33.2062 9.41447 32.7082C9.63224 32.2106 9.43797 31.6148 8.98061 31.3781C8.01722 30.8791 7.20783 30.0859 6.65061 29.0949C6.64516 29.0853 6.64348 29.0729 6.63802 29.0633C5.12497 26.3611 5.81227 22.8429 8.20436 21.0458L8.21653 21.0349C8.91222 20.5099 9.71112 20.1681 10.549 20.0369C11.0505 19.9593 11.3991 19.4535 11.3278 18.9074C11.2565 18.3614 10.792 17.9817 10.2906 18.0594C9.76902 18.1435 9.25712 18.2888 8.76452 18.4926C9.1711 16.7608 10.2671 15.317 11.7529 14.5567C13.2386 13.7959 14.9585 13.7982 16.4431 14.5622C16.8975 14.7833 17.4312 14.5686 17.6448 14.0787C17.8584 13.5894 17.6742 13.0036 17.2294 12.7592C16.8874 12.586 16.5333 12.4421 16.1707 12.3292C17.8764 9.89795 20.9994 9.27609 23.3844 10.8927H23.3928C24.0327 11.3226 24.5853 11.8901 25.017 12.5609C25.3107 13 25.873 13.1028 26.2825 12.7916C26.6916 12.4809 26.7974 11.8709 26.5204 11.419C26.1931 10.9146 25.813 10.4531 25.3884 10.0442C27.2081 8.79998 29.4857 8.65423 31.4267 9.65807C31.2849 9.74991 31.1401 9.83764 31.0017 9.93542C30.5775 10.2365 30.4575 10.8552 30.734 11.3171C31.0105 11.7791 31.5782 11.9093 32.0024 11.6087C35.5442 9.17237 40.1446 9.61467 43.2391 12.6893C44.1177 13.5739 44.8298 14.6362 45.3354 15.8169C45.4634 16.1554 45.7512 16.3907 46.086 16.4296C46.4204 16.4689 46.7473 16.3053 46.9382 16.0033C47.1291 15.7017 47.1526 15.3106 47.0003 14.9844C46.7779 14.469 46.522 13.9718 46.2337 13.4971C50.0151 14.8185 52.5805 18.6461 52.5843 22.9704C52.5843 23.213 52.5696 23.4524 52.5541 23.6932C52.5448 23.822 52.5356 23.9504 52.5209 24.0925C52.4357 24.9529 52.2469 25.7973 51.9591 26.6038C51.8399 26.9359 51.8923 27.3124 52.0971 27.5912C52.3019 27.8694 52.6275 28.0083 52.9514 27.9544C53.2753 27.9005 53.5485 27.6629 53.6676 27.3303C53.8628 26.7751 54.0193 26.2049 54.1359 25.6246C56.4084 26.8697 57.598 29.6514 57.0105 32.3467C56.4227 35.0421 54.2114 36.9452 51.6674 36.9447Z" fill="#DA3466" stroke="white" stroke-width="0.46732" mask="url(#path-1-inside-1_1747_353)"/>
</svg>
