<svg width="64" height="64" viewBox="0 0 64 64" fill="none" xmlns="http://www.w3.org/2000/svg">
<path d="M34.709 6.15918C38.8483 1.85365 43.3274 0.262224 47.4658 0.52832C51.6212 0.795613 55.5007 2.94124 58.4092 6.23242C64.2253 12.814 66.0828 23.8861 58.4609 33.2646L58.1484 33.6191L57.8555 33.9502L58.1484 34.2812L58.7861 35.0029C61.044 37.5593 61.0438 41.7618 58.7861 44.3184L58.7354 44.375C57.6247 45.6325 56.195 46.2596 54.7686 46.2725L54.2764 46.2773L54.2725 46.7695C54.2607 48.5237 53.6513 50.1466 52.5732 51.3672L52.5234 51.4238C51.3898 52.7073 49.9255 53.3331 48.4648 53.3203L47.9746 53.3164L47.9609 53.8066C47.9138 55.4597 47.3487 57.0699 46.2607 58.3018L46.2109 58.3584C43.985 60.8786 40.3735 60.8785 38.1475 58.3584L37.3096 57.4102L36.9355 56.9854L36.5605 57.4102L32.8223 61.6416L32.8164 61.6484C30.7155 64.1176 26.9535 64.1159 24.8662 61.6494L24.8613 61.6436L24.6631 61.4053C23.7031 60.1948 23.2066 58.6839 23.1846 57.1396L23.1777 56.6553L22.6934 56.6465C21.2308 56.6208 19.848 55.9674 18.7969 54.7773C17.7317 53.5712 17.169 52.0023 17.1221 50.4092L17.1084 49.9336L16.6318 49.9238C15.3121 49.8983 13.9814 49.325 12.9473 48.1543C11.1211 46.0868 10.8678 42.8793 12.1963 40.4912L12.374 40.1729L12.125 39.9072L5.25879 32.5566H5.25781V32.5557H5.25684V32.5547L5.25293 32.5508V32.5498H5.25195V32.5488H5.25098V32.5479H5.25V32.5469H5.24902V32.5459L5.24805 32.5449H5.24707V32.5439H5.24609V32.543H5.24512L5.24414 32.541V32.54H5.24316V32.5391H5.24219V32.5381H5.24121V32.5371L5.24023 32.5361H5.23926V32.5352H5.23828V32.5342L5.2373 32.5332V32.5322H5.23633V32.5312H5.23535V32.5303H5.23438V32.5293L5.2334 32.5283H5.23242V32.5273H5.23145V32.5264H5.23047L5.22949 32.5244V32.5234H5.22852V32.5225H5.22754V32.5215H5.22656V32.5205L5.22559 32.5195H5.22461V32.5186H5.22363V32.5176L5.22266 32.5166V32.5156H5.22168C-1.07388 25.3879 -1.07374 13.7695 5.22168 6.6416C11.4724 -0.435428 21.6219 -0.436926 27.8984 6.62793L27.9023 6.63184L30.7646 9.78809L31.1396 10.2021L31.5098 9.7832L34.709 6.15918ZM56.5723 8.5127C51.0731 2.28675 42.1094 2.28667 36.6104 8.5127L33.4473 12.0928L33.1514 12.4287L33.4531 12.7607L39.4648 19.3701L39.4727 19.3779C40.707 20.6776 41.3518 22.5463 41.3652 24.4482C41.3786 26.3503 40.7604 28.2302 39.543 29.5498L39.5352 29.5576L39.5283 29.5654C37.228 32.287 33.0796 32.287 30.7793 29.5654L30.7725 29.5576L28.6973 27.208L28.6455 27.1562C28.3781 26.9135 27.9551 26.9305 27.71 27.208L14.8477 41.7715C13.8581 42.8919 13.8503 44.6959 14.8672 45.7959V45.7949C15.8919 46.9465 17.5749 46.9439 18.5967 45.7871C18.6076 45.7747 19.5338 44.727 20.458 43.6807C20.9213 43.1562 21.3844 42.6322 21.7314 42.2393C21.9048 42.043 22.0492 41.8792 22.1504 41.7646C22.201 41.7074 22.2405 41.6615 22.2676 41.6309L22.3066 41.5869C22.3075 41.5859 22.3091 41.5845 22.3096 41.584C22.848 40.9745 23.6715 40.9745 24.21 41.584C24.7805 42.2299 24.7805 43.2769 24.21 43.9229L20.6973 47.8994L20.6953 47.9023C19.5976 49.1621 19.5925 51.1638 20.6904 52.416V52.417C21.788 53.7114 23.7584 53.7141 24.8594 52.4248L28.3467 48.4766C28.8852 47.8669 29.7096 47.8669 30.248 48.4766C30.8183 49.1224 30.8181 50.1686 30.248 50.8145L26.7744 54.7471C25.6564 55.9966 25.6415 58.0228 26.7598 59.2891V59.2881C27.8584 60.5755 29.8228 60.5759 30.9219 59.2891L34.835 54.8594L35.0566 54.6084L34.9082 54.3076C33.6818 51.8215 34.113 48.4637 35.9043 46.501L35.9102 46.4951L35.96 46.4385C36.5613 45.7577 37.2629 45.2642 37.9932 44.9541L38.5439 44.7207L38.2158 44.2197C36.5739 41.7146 36.8396 37.8922 38.8281 35.7324L38.835 35.7246L38.8848 35.668C40.5663 33.7642 43.0173 33.3101 45.0752 34.2627L45.6182 34.5137L45.7695 33.9346C46.0385 32.9019 46.5279 31.9546 47.2227 31.168L47.2725 31.1113L47.2793 31.1035C49.3916 28.6086 53.2041 28.6069 55.3301 31.1045L55.3359 31.1113L55.498 31.2949L55.873 31.7197L56.248 31.2949L56.5723 30.9268C62.0393 24.737 62.0393 14.7025 56.5723 8.5127ZM42.1094 48.8047C40.9461 47.4738 39.0196 47.4781 37.8477 48.8047V48.8057L37.7979 48.8613C37.2215 49.4926 36.9512 50.3505 36.9512 51.1816C36.9513 52.0123 37.222 52.8689 37.7979 53.5V53.501L40.0225 56.0195L40.0254 56.0225C41.1979 57.3326 43.1224 57.336 44.2852 56.0195L44.332 55.9648L44.333 55.9658C45.4789 54.685 45.4759 52.616 44.335 51.3242L42.1094 48.8047ZM45.0215 38.0205C43.8582 36.6898 41.9326 36.6941 40.7607 38.0205L40.71 38.0771C40.1339 38.7082 39.8634 39.5656 39.8633 40.3965C39.8633 41.2273 40.1341 42.0847 40.71 42.7158V42.7168L46.3359 49.085L46.3379 49.0879C47.5082 50.3955 49.4321 50.4031 50.584 49.0703L50.585 49.0713L50.6289 49.0215C51.2093 48.3897 51.4823 47.5292 51.4824 46.6953C51.4824 45.9132 51.242 45.1075 50.7334 44.4893L50.6289 44.3682L47.1973 40.4834L45.0215 38.0205ZM53.4346 33.4492C52.3107 32.1347 50.2966 32.1344 49.1729 33.4492L49.123 33.5059C48.5469 34.137 48.2765 34.9943 48.2764 35.8252C48.2764 36.6561 48.5471 37.5133 49.123 38.1445V38.1455L52.5605 42.0361C53.7237 43.3681 55.65 43.364 56.8223 42.0371L56.8721 41.9795C58.0156 40.6986 58.0129 38.6327 56.873 37.3418L53.4346 33.4492ZM26.0166 9.0166C20.8173 3.10788 12.3205 3.10946 7.12305 8.99316C1.95556 14.8291 1.95509 24.3124 7.10938 30.1484L7.11914 30.1592L13.9443 37.4756L14.3193 37.8789L14.6846 37.4658L25.8096 24.8701L25.8164 24.8623C27.0792 23.3715 29.328 23.3715 30.5908 24.8623L30.5977 24.8701L32.6729 27.2188L32.6738 27.2207C33.7709 28.4545 35.2903 28.6449 36.5215 28.0645C37.743 27.4884 38.6487 26.1738 38.6348 24.4785V24.4756L38.6279 24.2852C38.5737 23.3352 38.2133 22.4411 37.5938 21.7549L37.5928 21.7539L26.0176 9.0166H26.0166Z" fill="#FFD166" stroke="#121212"/>
</svg>
