<svg width="200" height="56" viewBox="0 0 200 56" fill="none" xmlns="http://www.w3.org/2000/svg">
<path fill-rule="evenodd" clip-rule="evenodd" d="M68.5693 16.75L57.0598 39.25H46.249L51.0658 29.925H50.8496C46.8759 35.0835 40.9469 38.4794 32.499 39.25V30.0541C32.499 30.0541 37.9033 29.7349 41.0804 26.3947H32.499V16.7502H42.1435V24.6826L42.36 24.6818L46.3011 16.7502H53.595V24.6323L53.8114 24.632L57.9004 16.75H68.5693Z" fill="#6E6E6E"/>
<path d="M131.332 36.7665H134.438V18.9375H131.332V36.7665Z" fill="#6E6E6E"/>
<path fill-rule="evenodd" clip-rule="evenodd" d="M114.208 36.5844C114.883 36.8651 115.57 37.0054 116.268 37.0054C117.42 37.0054 118.452 36.7248 119.362 36.1634C120.272 35.6022 120.978 34.8286 121.479 33.8424C121.979 32.8488 122.229 31.7223 122.229 30.4632C122.229 29.2041 121.972 28.0777 121.456 27.084C120.94 26.0904 120.223 25.3205 119.305 24.7744C118.388 24.2206 117.345 23.9476 116.176 23.9552C115.433 23.9552 114.72 24.0993 114.037 24.3875C113.355 24.6758 112.786 25.0854 112.331 25.6163C112.296 25.6567 112.262 25.6976 112.228 25.7388V18.9489H109.111V36.7666H112.206L112.199 35.1021C112.279 35.2002 112.365 35.2961 112.456 35.3898C112.949 35.8981 113.533 36.2962 114.208 36.5844ZM117.394 33.7059C116.886 34.0169 116.305 34.1724 115.653 34.1724C115.008 34.1724 114.417 34.0131 113.878 33.6946C113.34 33.3683 112.911 32.9247 112.592 32.3633C112.281 31.8021 112.126 31.1648 112.126 30.4518C112.118 29.7388 112.27 29.1017 112.581 28.5404C112.9 27.9715 113.328 27.5316 113.867 27.2206C114.405 26.902 115.001 26.7465 115.653 26.7541C116.305 26.7465 116.886 26.8982 117.394 27.2092C117.91 27.5126 118.304 27.9488 118.577 28.5176C118.858 29.0789 118.998 29.7237 118.998 30.4518C118.998 31.1801 118.858 31.8248 118.577 32.3861C118.304 32.9474 117.91 33.3873 117.394 33.7059Z" fill="#6E6E6E"/>
<path d="M73.0691 20.0184H76.619L79.7945 31.6154L83.1726 20.0184H86.1308L89.7945 31.3827L92.8437 20.0184H96.0977L91.2963 36.7665H88.2357L84.5102 25.6645L81.0905 36.7665H77.9957L73.0691 20.0184Z" fill="#6E6E6E"/>
<path fill-rule="evenodd" clip-rule="evenodd" d="M101.34 37.0623C100.104 37.0699 98.9888 36.7968 97.9952 36.2431C97.0091 35.6818 96.2317 34.9043 95.6627 33.9106C95.1014 32.917 94.8208 31.783 94.8208 30.5086C94.8208 29.2723 95.1091 28.1535 95.6856 27.1523C96.2619 26.151 97.0432 25.3697 98.0293 24.8084C99.0154 24.2471 100.115 23.9665 101.329 23.9665C102.694 23.9665 103.889 24.2699 104.913 24.8767C105.944 25.4835 106.714 26.3444 107.223 27.4595C107.738 28.5669 107.924 29.8374 107.78 31.271H98.0342C98.0614 31.8421 98.2039 32.3618 98.4617 32.8298C98.7499 33.3455 99.1519 33.7475 99.6677 34.0358C100.184 34.324 100.76 34.4681 101.397 34.4681C101.883 34.4605 102.334 34.3771 102.751 34.2179C103.168 34.051 103.521 33.8273 103.809 33.5465C104.105 33.2659 104.314 32.9474 104.435 32.5909H107.689C107.492 33.4631 107.097 34.2406 106.506 34.9233C105.914 35.5984 105.171 36.1255 104.276 36.5048C103.381 36.884 102.402 37.0699 101.34 37.0623ZM98.4731 28.1421C98.2913 28.4591 98.1653 28.8004 98.0952 29.1661H104.556C104.509 28.7041 104.366 28.2832 104.128 27.9032C103.855 27.4557 103.483 27.1105 103.013 26.8678C102.543 26.6175 102.012 26.4924 101.42 26.4924C100.79 26.4924 100.218 26.6365 99.7018 26.9247C99.1861 27.2129 98.7764 27.6188 98.4731 28.1421Z" fill="#6E6E6E"/>
<path d="M124.517 24.2282C124.517 23.2118 124.748 22.3092 125.211 21.5203C125.673 20.7239 126.322 20.1057 127.156 19.6657C127.998 19.2182 128.981 18.9868 130.103 18.9717V21.7365C129.58 21.7441 129.132 21.854 128.761 22.0664C128.397 22.2712 128.116 22.5708 127.919 22.9653C127.737 23.3284 127.639 23.7494 127.625 24.2282H130.035V26.8565H127.623V36.7665H124.517V26.8565H122.514V24.2282H124.517Z" fill="#6E6E6E"/>
<path fill-rule="evenodd" clip-rule="evenodd" d="M142.334 37.0395C141.067 37.0395 139.933 36.7626 138.932 36.209C137.938 35.6476 137.157 34.874 136.588 33.8878C136.027 32.8942 135.746 31.7678 135.746 30.5086C135.746 29.242 136.027 28.1117 136.588 27.1181C137.157 26.1168 137.938 25.3393 138.932 24.7856C139.933 24.2319 141.067 23.955 142.334 23.955C143.608 23.955 144.746 24.2319 145.747 24.7856C146.756 25.3393 147.541 26.113 148.102 27.1067C148.664 28.1003 148.948 29.2343 148.956 30.5086C148.948 31.7678 148.664 32.8942 148.102 33.8878C147.549 34.874 146.767 35.6476 145.758 36.209C144.75 36.7626 143.608 37.0395 142.334 37.0395ZM142.334 34.1837C143.001 34.1837 143.593 34.032 144.109 33.7286C144.625 33.4176 145.023 32.9852 145.303 32.4315C145.584 31.8702 145.724 31.2292 145.724 30.5086C145.724 29.7805 145.584 29.1357 145.303 28.5744C145.023 28.0131 144.625 27.5808 144.109 27.2774C143.593 26.9664 143.001 26.8109 142.334 26.8109C141.674 26.8109 141.086 26.9664 140.57 27.2774C140.062 27.5808 139.668 28.0131 139.387 28.5744C139.106 29.1357 138.97 29.7805 138.977 30.5086C138.977 31.2292 139.118 31.8702 139.398 32.4315C139.687 32.9852 140.081 33.4176 140.582 33.7286C141.09 34.032 141.674 34.1837 142.334 34.1837Z" fill="#6E6E6E"/>
<path d="M152.312 24.2282H148.853L152.597 36.7665H155.623L158.085 28.7583L160.743 36.7665H163.724L167.479 24.2282H164.35L162.22 32.0325L159.866 24.2282H156.841L154.498 32.2044L152.312 24.2282Z" fill="#6E6E6E"/>
</svg>
