<svg width="64" height="64" viewBox="0 0 64 64" fill="none" xmlns="http://www.w3.org/2000/svg">
<mask id="mask0_1747_45" style="mask-type:luminance" maskUnits="userSpaceOnUse" x="0" y="0" width="64" height="64">
<path d="M62.5 1.5V62.5H1.5V1.5H62.5Z" fill="white" stroke="white" stroke-width="3"/>
</mask>
<g mask="url(#mask0_1747_45)">
<path d="M62.125 14.7738C62.125 7.65 43.6162 1.875 26.9787 1.875C10.3412 1.875 1.875 7.65 1.875 14.7738C1.875 20.7838 7.9 25.8338 19.775 27.265C24.5088 25.6463 30.2738 24.6725 35.7663 24.6725C39.12 24.6725 42.03 25.035 44.4938 25.6863C54.425 23.4025 62.125 19.3688 62.125 14.7738Z" stroke="#FFD166" stroke-width="2" stroke-miterlimit="10" stroke-linejoin="round"/>
<path d="M54.5938 35.8964C54.5938 31.3639 51.1988 27.4576 44.4938 25.6864C42.03 25.0351 39.12 24.6726 35.7663 24.6726C30.2738 24.6726 24.5088 25.6464 19.775 27.2651C13.7563 29.3239 9.40625 32.4264 9.40625 35.8964C9.40625 39.8039 14.92 43.2451 22.1225 45.2539C24.0488 44.3439 26.5063 43.8164 29.49 43.8164C33.7988 43.8164 38.3588 44.9164 41.7538 46.6789C50.2725 45.3264 54.5938 41.0114 54.5938 35.8964Z" stroke="#FFD166" stroke-width="2" stroke-miterlimit="10" stroke-linejoin="round"/>
<path d="M47.0625 52.9702C47.0625 50.5339 44.9125 48.3189 41.7537 46.6789C38.3587 44.9164 33.7987 43.8164 29.49 43.8164C26.5062 43.8164 24.0487 44.3439 22.1225 45.2539C18.6787 46.8789 16.9375 49.7277 16.9375 52.9702C16.9375 58.0264 21.1712 62.1252 29.49 62.1252C37.8088 62.1252 47.0625 58.0264 47.0625 52.9702Z" stroke="#FFD166" stroke-width="2" stroke-miterlimit="10" stroke-linejoin="round"/>
</g>
</svg>
